<svg height="12.5" viewBox="0 0 203.218 12.5" width="203.218" xmlns="http://www.w3.org/2000/svg"><path d="m289.886 4134.36c-.66 0-1.242-.02-1.746-.05a2.09 2.09 0 0 0 .126.77 1.5 1.5 0 0 1 .873.34 1.006 1.006 0 0 1 .279.78 5.724 5.724 0 0 1 -.288 1.44l-1.908 6.05q-1.818-5.25-3.438-9.47a2.442 2.442 0 0 0 -.792.09l-3.168 9.34c-.516-1.72-1.218-3.95-2.106-6.71a4.581 4.581 0 0 1 -.306-1.25.443.443 0 0 1 .252-.45 2.814 2.814 0 0 1 .9-.16 3.186 3.186 0 0 0 .09-.77c-.66.03-1.386.05-2.178.05s-1.458-.02-2.034-.05a2.659 2.659 0 0 0 .09.77.905.905 0 0 1 .891.67 14.288 14.288 0 0 1 .531 1.4q1.422 4.305 3.024 9.54a2.075 2.075 0 0 0 .774-.11l3.168-9.45q1.71 4.455 3.51 9.56a1.894 1.894 0 0 0 .72-.11l2.808-8.89c.216-.69.4-1.21.54-1.55a2.465 2.465 0 0 1 .432-.75 1.009 1.009 0 0 1 .54-.31 2.329 2.329 0 0 0 .126-.77c-.48.03-1.05.05-1.71.05zm13.05 12.33a5.711 5.711 0 0 0 3.069-.83 5.778 5.778 0 0 0 2.124-2.25 7.138 7.138 0 0 0 0-6.43 5.579 5.579 0 0 0 -2.124-2.2 6.054 6.054 0 0 0 -3.069-.78 5.857 5.857 0 0 0 -3.015.79 5.732 5.732 0 0 0 -2.142 2.21 6.5 6.5 0 0 0 -.783 3.21 6.808 6.808 0 0 0 .747 3.21 5.541 5.541 0 0 0 2.1 2.25 5.814 5.814 0 0 0 3.1.82zm.36-.88a3.632 3.632 0 0 1 -2.376-.82 5.128 5.128 0 0 1 -1.539-2.17 7.826 7.826 0 0 1 -.531-2.9 6.274 6.274 0 0 1 .477-2.53 3.939 3.939 0 0 1 1.323-1.71 3.17 3.17 0 0 1 1.908-.62 3.686 3.686 0 0 1 2.286.78 5.174 5.174 0 0 1 1.611 2.1 7.246 7.246 0 0 1 .585 2.94 6.717 6.717 0 0 1 -.45 2.51 4.031 4.031 0 0 1 -1.3 1.77 3.215 3.215 0 0 1 -1.989.65zm19.962-1.8c-.564-.96-.99-1.65-1.278-2.08a10.483 10.483 0 0 0 -1.062-1.3 4.4 4.4 0 0 0 2.223-1.23 2.9 2.9 0 0 0 .8-2.05 2.735 2.735 0 0 0 -.99-2.19 4.49 4.49 0 0 0 -2.934-.83l-1.512.01c-.336.02-.834.02-1.494.02q-1.44 0-2.16-.03a2.557 2.557 0 0 0 .09.75 1.167 1.167 0 0 1 .981.34 2.081 2.081 0 0 1 .261 1.23v7.59a2.082 2.082 0 0 1 -.252 1.22 1.3 1.3 0 0 1 -.99.35 2.659 2.659 0 0 0 -.09.77c.54-.03 1.26-.05 2.16-.05s1.626.02 2.142.05a2.567 2.567 0 0 0 -.09-.77 1.214 1.214 0 0 1 -.945-.35 2.144 2.144 0 0 1 -.243-1.22v-3.25q.432.03.7.03l.558-.02a12.7 12.7 0 0 1 1.215 1.49q.459.675 1.017 1.68l.216.4c.348.68.75 1.39 1.206 2.12a18.464 18.464 0 0 1 2.826-.16 3.066 3.066 0 0 0 .072-.77 3.355 3.355 0 0 1 -1.053-.2 1.785 1.785 0 0 1 -.675-.51 7.312 7.312 0 0 1 -.7-1.04zm-5.382-3.85v-4.9a6.887 6.887 0 0 1 1.332-.14 3.3 3.3 0 0 1 2.259.64 2.241 2.241 0 0 1 .711 1.77 2.287 2.287 0 0 1 -.972 2.01 4.36 4.36 0 0 1 -2.538.67 7.787 7.787 0 0 1 -.792-.05zm21.69 3.81a39.6 39.6 0 0 0 -3.564-4.21l2.934-3.11a7.225 7.225 0 0 1 1.368-1.21 2.7 2.7 0 0 1 1.188-.36 2.056 2.056 0 0 0 .108-.77c-.481.03-1.1.05-1.854.05-.841 0-1.458-.02-1.854-.05a2.625 2.625 0 0 0 .09.77q.594.015.594.42a1.918 1.918 0 0 1 -.666 1.08l-3.4 3.56v-3.49a2.016 2.016 0 0 1 .261-1.22 1.342 1.342 0 0 1 .981-.35 2.466 2.466 0 0 0 .09-.77c-.72.03-1.447.05-2.178.05-.792 0-1.519-.02-2.178-.05a2.407 2.407 0 0 0 .09.77 1.349 1.349 0 0 1 .981.35 2.031 2.031 0 0 1 .261 1.22v7.59a2.031 2.031 0 0 1 -.261 1.22 1.309 1.309 0 0 1 -.981.35 2.449 2.449 0 0 0 -.09.77c.612-.03 1.337-.05 2.178-.05.731 0 1.458.02 2.178.05a2.51 2.51 0 0 0 -.09-.77 1.3 1.3 0 0 1 -.981-.35 2.016 2.016 0 0 1 -.261-1.22v-3.58a24.177 24.177 0 0 1 2.646 2.94 32.112 32.112 0 0 1 2.178 3.04c.707-.07 1.661-.11 2.862-.11a2.949 2.949 0 0 0 .09-.77 3.255 3.255 0 0 1 -1.116-.24 2.492 2.492 0 0 1 -.756-.53 10.927 10.927 0 0 1 -.846-1.02zm21.707 2.72a6.688 6.688 0 0 0 2.367-.38 8.127 8.127 0 0 0 2.133-1.22.956.956 0 0 0 -.117-.3 1.028 1.028 0 0 0 -.207-.26 7.444 7.444 0 0 1 -1.674.78 5.76 5.76 0 0 1 -1.746.28 4.078 4.078 0 0 1 -2.448-.74 4.7 4.7 0 0 1 -1.593-2.05 7.5 7.5 0 0 1 -.549-2.93 6.512 6.512 0 0 1 .45-2.45 3.844 3.844 0 0 1 3.816-2.48 2.637 2.637 0 0 1 1.962.67 3.763 3.763 0 0 1 .738 2.48 2.687 2.687 0 0 0 .954-.16 14.493 14.493 0 0 1 .2-2.79 9.76 9.76 0 0 0 -1.962-.71 8.686 8.686 0 0 0 -2.034-.23 6.4 6.4 0 0 0 -2.961.7 5.487 5.487 0 0 0 -2.214 2.09 6.4 6.4 0 0 0 -.837 3.37 7.194 7.194 0 0 0 .729 3.29 5.429 5.429 0 0 0 2.034 2.24 5.492 5.492 0 0 0 2.961.8zm16.29 0a5.711 5.711 0 0 0 3.069-.83 5.778 5.778 0 0 0 2.124-2.25 7.138 7.138 0 0 0 0-6.43 5.579 5.579 0 0 0 -2.124-2.2 6.054 6.054 0 0 0 -3.069-.78 5.857 5.857 0 0 0 -3.015.79 5.732 5.732 0 0 0 -2.142 2.21 6.5 6.5 0 0 0 -.783 3.21 6.808 6.808 0 0 0 .747 3.21 5.541 5.541 0 0 0 2.1 2.25 5.814 5.814 0 0 0 3.1.82zm.36-.88a3.632 3.632 0 0 1 -2.376-.82 5.128 5.128 0 0 1 -1.539-2.17 7.826 7.826 0 0 1 -.531-2.9 6.274 6.274 0 0 1 .477-2.53 3.939 3.939 0 0 1 1.323-1.71 3.17 3.17 0 0 1 1.908-.62 3.686 3.686 0 0 1 2.286.78 5.174 5.174 0 0 1 1.611 2.1 7.246 7.246 0 0 1 .585 2.94 6.717 6.717 0 0 1 -.45 2.51 4.031 4.031 0 0 1 -1.305 1.77 3.215 3.215 0 0 1 -1.989.65zm21.456-11.45c-.612 0-1.176-.02-1.692-.05a5.017 5.017 0 0 0 .09.77 1.1 1.1 0 0 1 .756.24 1.311 1.311 0 0 1 .378.77 8.451 8.451 0 0 1 .108 1.55v5.96l-7-9.29c-.324.03-.726.05-1.206.05-.528 0-.972-.02-1.332-.05a2.855 2.855 0 0 0 .09.77 1.983 1.983 0 0 1 .693.15 1.514 1.514 0 0 1 .477.41l.072.09v7.43a9.126 9.126 0 0 1 -.108 1.61 1.408 1.408 0 0 1 -.378.8 1.1 1.1 0 0 1 -.756.24 2.567 2.567 0 0 0 -.09.77c.456-.03 1.056-.05 1.8-.05.648 0 1.242.02 1.782.05a2.567 2.567 0 0 0 -.09-.77 1.1 1.1 0 0 1 -.756-.24 1.408 1.408 0 0 1 -.378-.8 9.126 9.126 0 0 1 -.108-1.61v-6.22l7.434 9.7a2.3 2.3 0 0 0 .774-.11v-8.89a9.234 9.234 0 0 1 .1-1.54 1.466 1.466 0 0 1 .324-.78.833.833 0 0 1 .639-.24 2.855 2.855 0 0 0 .09-.77c-.492.03-1.062.05-1.71.05zm16.722-.05c-.66.03-2.2.05-4.626.05-2.388 0-3.918-.02-4.59-.05a16.662 16.662 0 0 1 -.288 2.88 1.727 1.727 0 0 0 .864.16 5.819 5.819 0 0 1 .333-1.23 1.425 1.425 0 0 1 .639-.7 2.5 2.5 0 0 1 1.278-.27h.918v9.09a2.925 2.925 0 0 1 -.117.94.754.754 0 0 1 -.423.46 2.643 2.643 0 0 1 -.9.17 2.479 2.479 0 0 0 -.09.77c.672-.03 1.458-.05 2.358-.05.8 0 1.59.02 2.358.05a2.479 2.479 0 0 0 -.09-.77 2.553 2.553 0 0 1 -.891-.17.735.735 0 0 1 -.405-.45 3.138 3.138 0 0 1 -.108-.95v-9.09h.954a1.909 1.909 0 0 1 1.512.56 2.566 2.566 0 0 1 .522 1.64 1.944 1.944 0 0 0 .9-.16c-.084-1.01-.126-1.75-.126-2.23zm14.184 9.14a5.621 5.621 0 0 1 -.621 1.32 2.038 2.038 0 0 1 -.981.7 5.583 5.583 0 0 1 -1.908.25h-.108a3.012 3.012 0 0 1 -1.035-.14.814.814 0 0 1 -.477-.5 3.208 3.208 0 0 1 -.126-1.03v-3.26h1.134a2.611 2.611 0 0 1 1.539.33 1.733 1.733 0 0 1 .5 1.27 3.294 3.294 0 0 0 .828.09c-.024-.41-.036-1.1-.036-2.09 0-.9.012-1.55.036-1.96a2.876 2.876 0 0 0 -.864.13 1.382 1.382 0 0 1 -.441 1.16 2.886 2.886 0 0 1 -1.557.29h-1.134v-4.93h1.666a3.123 3.123 0 0 1 2.223.64 2.591 2.591 0 0 1 .729 1.65 1.243 1.243 0 0 0 .81-.22 23.776 23.776 0 0 1 -.378-2.84c-1.188.03-2.874.05-5.058.05-1.308 0-2.316-.02-3.024-.05a2.436 2.436 0 0 0 .09.77 1.346 1.346 0 0 1 .981.35 2.024 2.024 0 0 1 .261 1.22v7.4a4.024 4.024 0 0 1 -.108 1.08.807.807 0 0 1 -.369.5 1.781 1.781 0 0 1 -.765.18 2.479 2.479 0 0 0 -.09.77c.9-.03 2.454-.05 4.662-.05 1.632 0 2.916.01 3.852.04a15.872 15.872 0 0 1 .558-2.69 1.921 1.921 0 0 0 -.792-.43zm16.758-9.09c-.612 0-1.176-.02-1.692-.05a5.017 5.017 0 0 0 .09.77 1.1 1.1 0 0 1 .756.24 1.311 1.311 0 0 1 .378.77 8.451 8.451 0 0 1 .108 1.55v5.96l-7-9.29c-.324.03-.726.05-1.206.05-.528 0-.972-.02-1.332-.05a2.855 2.855 0 0 0 .09.77 1.983 1.983 0 0 1 .693.15 1.514 1.514 0 0 1 .477.41l.072.09v7.43a9.126 9.126 0 0 1 -.108 1.61 1.408 1.408 0 0 1 -.378.8 1.1 1.1 0 0 1 -.756.24 2.567 2.567 0 0 0 -.09.77c.456-.03 1.056-.05 1.8-.05.648 0 1.242.02 1.782.05a2.567 2.567 0 0 0 -.09-.77 1.1 1.1 0 0 1 -.756-.24 1.408 1.408 0 0 1 -.378-.8 9.126 9.126 0 0 1 -.108-1.61v-6.22l7.434 9.7a2.3 2.3 0 0 0 .774-.11v-8.89a9.234 9.234 0 0 1 .1-1.54 1.466 1.466 0 0 1 .324-.78.833.833 0 0 1 .639-.24 2.855 2.855 0 0 0 .09-.77c-.492.03-1.062.05-1.71.05zm16.722-.05c-.661.03-2.2.05-4.626.05-2.389 0-3.919-.02-4.59-.05a16.761 16.761 0 0 1 -.288 2.88 1.727 1.727 0 0 0 .864.16 5.759 5.759 0 0 1 .333-1.23 1.421 1.421 0 0 1 .639-.7 2.5 2.5 0 0 1 1.278-.27h.918v9.09a2.954 2.954 0 0 1 -.117.94.76.76 0 0 1 -.423.46 2.648 2.648 0 0 1 -.9.17 2.449 2.449 0 0 0 -.09.77c.671-.03 1.458-.05 2.358-.05.8 0 1.589.02 2.358.05a2.51 2.51 0 0 0 -.09-.77 2.553 2.553 0 0 1 -.891-.17.735.735 0 0 1 -.4-.45 3.138 3.138 0 0 1 -.108-.95v-9.09h.954a1.909 1.909 0 0 1 1.512.56 2.571 2.571 0 0 1 .522 1.64 1.947 1.947 0 0 0 .9-.16c-.085-1.01-.126-1.75-.126-2.23zm9.773 12.38a5.086 5.086 0 0 0 2.3-.47 3.209 3.209 0 0 0 1.368-1.26 3.479 3.479 0 0 0 .441-1.72 2.852 2.852 0 0 0 -.45-1.64 3.661 3.661 0 0 0 -1.089-1.08 15.157 15.157 0 0 0 -1.7-.92c-.624-.31-1.113-.58-1.467-.79a3.125 3.125 0 0 1 -.9-.83 2 2 0 0 1 -.369-1.21 1.64 1.64 0 0 1 .54-1.31 2.218 2.218 0 0 1 1.494-.47 1.81 1.81 0 0 1 1.368.53 4.033 4.033 0 0 1 .756 2.01 2.649 2.649 0 0 0 1.008-.16 18.976 18.976 0 0 1 -.108-2.38 4.428 4.428 0 0 0 -1.314-.56 6.3 6.3 0 0 0 -1.692-.23 3.868 3.868 0 0 0 -2.646.86 3.027 3.027 0 0 0 -.972 2.38 3.078 3.078 0 0 0 .459 1.74 3.671 3.671 0 0 0 1.107 1.1 16.755 16.755 0 0 0 1.728.94 16 16 0 0 1 1.458.75 2.958 2.958 0 0 1 .882.8 1.934 1.934 0 0 1 .36 1.19 1.764 1.764 0 0 1 -.567 1.36 3.164 3.164 0 0 1 -3.78-.25 3.509 3.509 0 0 1 -.729-2.19 4 4 0 0 0 -.972.1 16.561 16.561 0 0 1 -.162 2.56 8.145 8.145 0 0 0 1.782.87 5.736 5.736 0 0 0 1.872.28z" fill-rule="evenodd" transform="translate(-274.438 -4134.19)"/></svg>