<svg height="11.1" viewBox="0 0 499.157 11.1" width="499.157" xmlns="http://www.w3.org/2000/svg"><path d="m130.64 5747.91a6.212 6.212 0 0 0 2.1-.33 7.427 7.427 0 0 0 1.9-1.09.777.777 0 0 0 -.1-.26 1.077 1.077 0 0 0 -.184-.24 6.431 6.431 0 0 1 -1.488.69 5.11 5.11 0 0 1 -1.552.26 3.6 3.6 0 0 1 -2.176-.67 4.157 4.157 0 0 1 -1.416-1.82 6.639 6.639 0 0 1 -.488-2.6 5.81 5.81 0 0 1 .4-2.18 3.406 3.406 0 0 1 3.392-2.2 2.346 2.346 0 0 1 1.744.6 3.324 3.324 0 0 1 .656 2.2 2.158 2.158 0 0 0 .848-.15 12.989 12.989 0 0 1 .176-2.48 8.661 8.661 0 0 0 -1.744-.63 7.909 7.909 0 0 0 -1.808-.2 5.784 5.784 0 0 0 -2.632.62 4.883 4.883 0 0 0 -1.968 1.86 5.683 5.683 0 0 0 -.744 2.99 6.389 6.389 0 0 0 .648 2.93 4.816 4.816 0 0 0 4.44 2.7zm19.408-.78a.952.952 0 0 1 -.6-.35 6.154 6.154 0 0 1 -.632-1.19l-3.808-8.73a2.91 2.91 0 0 0 -.624.06l-3.312 8.5a6.812 6.812 0 0 1 -.624 1.31 1.059 1.059 0 0 1 -.656.42 1.736 1.736 0 0 0 -.112.67c.608-.03 1.051-.05 1.328-.05.651 0 1.157.02 1.52.05a1.81 1.81 0 0 0 -.112-.69 1.2 1.2 0 0 1 -.632-.18.562.562 0 0 1 -.2-.48 3.215 3.215 0 0 1 .256-1.05l.432-1.11q1.68-.06 4.224-.06l.7 1.63a2.828 2.828 0 0 1 .24.79.337.337 0 0 1 -.184.32 2.011 2.011 0 0 1 -.632.14 1.614 1.614 0 0 0 -.112.69c.64-.03 1.243-.05 1.808-.05s1.184.02 1.824.05a2.358 2.358 0 0 0 -.1-.69zm-7.488-3.6 1.1-2.86c.288-.79.491-1.37.608-1.73q.224.645.7 1.74l1.216 2.85zm16.96 3.52h-.1a2.373 2.373 0 0 1 -.912-.13.713.713 0 0 1 -.416-.43 2.841 2.841 0 0 1 -.112-.93v-6.53a2.983 2.983 0 0 1 .1-.86.676.676 0 0 1 .328-.42 1.97 1.97 0 0 1 .68-.16 2.1 2.1 0 0 0 .08-.68c-.64.03-1.285.04-1.936.04-.672 0-1.317-.01-1.936-.04a2.1 2.1 0 0 0 .08.68 1.2 1.2 0 0 1 .872.32 1.753 1.753 0 0 1 .232 1.08v6.57a3.264 3.264 0 0 1 -.1.95.736.736 0 0 1 -.336.46 1.6 1.6 0 0 1 -.68.16 2.215 2.215 0 0 0 -.08.69c.8-.03 2.181-.05 4.144-.05q1.855 0 3.1.03a13.9 13.9 0 0 1 .5-2.38 1.74 1.74 0 0 0 -.7-.39 4.911 4.911 0 0 1 -.592 1.22 1.744 1.744 0 0 1 -.816.61 4.031 4.031 0 0 1 -1.392.19zm15.92-2.02a4.8 4.8 0 0 1 -.552 1.17 1.8 1.8 0 0 1 -.872.63 5 5 0 0 1 -1.7.22h-.1a2.432 2.432 0 0 1 -.92-.13.7.7 0 0 1 -.424-.44 2.854 2.854 0 0 1 -.112-.92v-2.89h1.008a2.37 2.37 0 0 1 1.368.29 1.558 1.558 0 0 1 .44 1.13 3.087 3.087 0 0 0 .736.08q-.033-.54-.032-1.86 0-1.2.032-1.74a2.908 2.908 0 0 0 -.768.11 1.214 1.214 0 0 1 -.392 1.03 2.524 2.524 0 0 1 -1.384.27h-1.008v-4.39h1.488a2.746 2.746 0 0 1 1.976.57 2.3 2.3 0 0 1 .648 1.47 1.124 1.124 0 0 0 .72-.2 20.949 20.949 0 0 1 -.336-2.52c-1.056.03-2.555.04-4.5.04-1.163 0-2.059-.01-2.688-.04a2.074 2.074 0 0 0 .08.68 1.2 1.2 0 0 1 .872.32 1.76 1.76 0 0 1 .232 1.08v6.57a3.544 3.544 0 0 1 -.1.96.691.691 0 0 1 -.328.45 1.6 1.6 0 0 1 -.68.16 2.185 2.185 0 0 0 -.08.69c.8-.03 2.181-.05 4.144-.05q2.175 0 3.424.03a13.9 13.9 0 0 1 .5-2.38 1.74 1.74 0 0 0 -.7-.39zm14.9-8.08c-.544 0-1.046-.01-1.5-.04a4.21 4.21 0 0 0 .08.68.987.987 0 0 1 .672.21 1.2 1.2 0 0 1 .336.69 7.506 7.506 0 0 1 .1 1.38v5.29l-6.224-8.25c-.288.03-.646.04-1.072.04-.47 0-.864-.01-1.184-.04a2.528 2.528 0 0 0 .08.68 2.2 2.2 0 0 1 .616.13 1.467 1.467 0 0 1 .424.37l.064.08v6.61a7.928 7.928 0 0 1 -.1 1.42 1.237 1.237 0 0 1 -.336.71.943.943 0 0 1 -.672.22 2.272 2.272 0 0 0 -.08.69c.405-.03.938-.05 1.6-.05.576 0 1.1.02 1.584.05a2.3 2.3 0 0 0 -.08-.69.943.943 0 0 1 -.672-.22 1.237 1.237 0 0 1 -.336-.71 7.928 7.928 0 0 1 -.1-1.42v-5.54l6.608 8.63a2.1 2.1 0 0 0 .688-.1v-7.9a8.087 8.087 0 0 1 .088-1.37 1.339 1.339 0 0 1 .288-.7.746.746 0 0 1 .568-.21 2.569 2.569 0 0 0 .08-.68c-.438.03-.944.04-1.52.04zm11.056-.03c-.416 0-.731.01-.944.02l-.944.01c-1 0-1.75-.01-2.24-.04a2.074 2.074 0 0 0 .08.68 1.2 1.2 0 0 1 .872.32 1.76 1.76 0 0 1 .232 1.08v6.57a3.264 3.264 0 0 1 -.1.95.743.743 0 0 1 -.336.46 1.6 1.6 0 0 1 -.68.16 2.185 2.185 0 0 0 -.08.69c.8-.03 2.181-.05 4.144-.05a7.938 7.938 0 0 0 4.152-1.15q1.927-1.155 1.928-4.53c0-1.98-.574-3.34-1.72-4.07a7.982 7.982 0 0 0 -4.36-1.1zm0 10.13a2.366 2.366 0 0 1 -.912-.13.71.71 0 0 1 -.416-.43 2.841 2.841 0 0 1 -.112-.93v-7.89a3.947 3.947 0 0 1 .552-.1 4.838 4.838 0 0 1 .632-.04 5.439 5.439 0 0 1 2.336.5 3.885 3.885 0 0 1 1.7 1.57 5.234 5.234 0 0 1 .648 2.73 4.76 4.76 0 0 1 -1.176 3.64 4.634 4.634 0 0 1 -3.256 1.08zm21.248.08a.947.947 0 0 1 -.6-.35 6.1 6.1 0 0 1 -.632-1.19l-3.808-8.73a2.91 2.91 0 0 0 -.624.06l-3.312 8.5a6.812 6.812 0 0 1 -.624 1.31 1.059 1.059 0 0 1 -.656.42 1.736 1.736 0 0 0 -.112.67c.608-.03 1.05-.05 1.328-.05.65 0 1.157.02 1.52.05a1.83 1.83 0 0 0 -.112-.69 1.2 1.2 0 0 1 -.632-.18.559.559 0 0 1 -.2-.48 3.215 3.215 0 0 1 .256-1.05l.432-1.11q1.68-.06 4.224-.06l.7 1.63a2.828 2.828 0 0 1 .24.79.339.339 0 0 1 -.184.32 2.018 2.018 0 0 1 -.632.14 1.614 1.614 0 0 0 -.112.69c.64-.03 1.242-.05 1.808-.05s1.184.02 1.824.05a2.358 2.358 0 0 0 -.1-.69zm-7.488-3.6 1.1-2.86c.288-.79.49-1.37.608-1.73q.224.645.7 1.74l1.216 2.85h-3.632zm20.192 2c-.5-.85-.88-1.47-1.136-1.85a9.539 9.539 0 0 0 -.944-1.16 3.856 3.856 0 0 0 1.976-1.09 2.589 2.589 0 0 0 .712-1.82 2.41 2.41 0 0 0 -.88-1.94 3.93 3.93 0 0 0 -2.608-.75l-1.344.02c-.3.01-.742.01-1.328.01q-1.281 0-1.92-.03a2.26 2.26 0 0 0 .08.67 1.052 1.052 0 0 1 .872.3 1.875 1.875 0 0 1 .232 1.1v6.75a1.851 1.851 0 0 1 -.224 1.08 1.152 1.152 0 0 1 -.88.31 2.362 2.362 0 0 0 -.08.69c.48-.03 1.12-.05 1.92-.05s1.445.02 1.9.05a2.3 2.3 0 0 0 -.08-.69 1.075 1.075 0 0 1 -.84-.31 1.9 1.9 0 0 1 -.216-1.08v-2.9q.384.03.624.03l.5-.01a11.283 11.283 0 0 1 1.08 1.32c.272.4.573.9.9 1.49l.192.36c.309.6.666 1.23 1.072 1.88a17.543 17.543 0 0 1 2.512-.14 2.759 2.759 0 0 0 .064-.69 3.037 3.037 0 0 1 -.936-.17 1.638 1.638 0 0 1 -.6-.45 6.7 6.7 0 0 1 -.624-.93zm-4.784-3.42v-4.36a6.106 6.106 0 0 1 1.184-.12 3 3 0 0 1 2.008.56 2.277 2.277 0 0 1 -.232 3.36 3.876 3.876 0 0 1 -2.256.6 6 6 0 0 1 -.7-.04zm24.079 5.8a5.092 5.092 0 0 0 4.616-2.74 6.333 6.333 0 0 0 0-5.71 4.838 4.838 0 0 0 -1.888-1.95 5.572 5.572 0 0 0 -5.408 0 5.116 5.116 0 0 0 -1.9 1.96 5.806 5.806 0 0 0 -.7 2.86 6.1 6.1 0 0 0 .664 2.86 5.079 5.079 0 0 0 1.864 2 5.246 5.246 0 0 0 2.752.72zm.32-.78a3.226 3.226 0 0 1 -2.112-.73 4.567 4.567 0 0 1 -1.368-1.93 6.946 6.946 0 0 1 -.472-2.57 5.659 5.659 0 0 1 .424-2.26 3.642 3.642 0 0 1 1.176-1.52 2.839 2.839 0 0 1 1.7-.54 3.286 3.286 0 0 1 2.032.69 4.6 4.6 0 0 1 1.432 1.87 6.419 6.419 0 0 1 .52 2.61 5.962 5.962 0 0 1 -.4 2.23 3.534 3.534 0 0 1 -1.16 1.57 2.811 2.811 0 0 1 -1.768.58zm14.384-9.54a2.744 2.744 0 0 1 1.976.57 2.293 2.293 0 0 1 .648 1.47 1.124 1.124 0 0 0 .72-.2 21.375 21.375 0 0 1 -.336-2.52c-1.056.03-2.539.04-4.448.04-1.077 0-1.968-.01-2.672-.04a2.1 2.1 0 0 0 .08.68 1.2 1.2 0 0 1 .872.32 1.753 1.753 0 0 1 .232 1.08v6.75a1.794 1.794 0 0 1 -.232 1.08 1.156 1.156 0 0 1 -.872.31 2.215 2.215 0 0 0 -.08.69c.416-.03 1.141-.05 2.176-.05.853 0 1.525.02 2.016.05a2.215 2.215 0 0 0 -.08-.69 2.39 2.39 0 0 1 -.84-.17.855.855 0 0 1 -.44-.49 2.957 2.957 0 0 1 -.144-1.05v-2.43h1.1a2.37 2.37 0 0 1 1.368.29 1.554 1.554 0 0 1 .44 1.13 3.094 3.094 0 0 0 .736.08q-.032-.54-.032-1.86 0-1.2.032-1.74a2.908 2.908 0 0 0 -.768.11 1.211 1.211 0 0 1 -.392 1.03 2.524 2.524 0 0 1 -1.384.27h-1.1v-4.71zm23.7-.68c-.587.03-1.957.04-4.112.04-2.123 0-3.483-.01-4.08-.04a14.839 14.839 0 0 1 -.256 2.56 1.631 1.631 0 0 0 .768.14 5.474 5.474 0 0 1 .3-1.1 1.329 1.329 0 0 1 .568-.62 2.34 2.34 0 0 1 1.136-.23h.816v8.08a2.567 2.567 0 0 1 -.1.83.687.687 0 0 1 -.376.41 2.407 2.407 0 0 1 -.8.15 2.215 2.215 0 0 0 -.08.69c.6-.03 1.3-.05 2.1-.05.715 0 1.413.02 2.1.05a2.215 2.215 0 0 0 -.08-.69 2.326 2.326 0 0 1 -.792-.15.645.645 0 0 1 -.36-.4 2.787 2.787 0 0 1 -.1-.84v-8.08h.848a1.69 1.69 0 0 1 1.344.49 2.309 2.309 0 0 1 .464 1.46 1.8 1.8 0 0 0 .8-.14c-.075-.9-.112-1.56-.112-1.99zm14.32 8.83v-6.75a1.753 1.753 0 0 1 .232-1.08 1.2 1.2 0 0 1 .872-.32 2.1 2.1 0 0 0 .08-.68c-.64.03-1.286.04-1.936.04-.7 0-1.35-.01-1.936-.04a2.074 2.074 0 0 0 .08.68 1.2 1.2 0 0 1 .872.32 1.76 1.76 0 0 1 .232 1.08v2.89h-4.88v-2.89a1.753 1.753 0 0 1 .232-1.08 1.2 1.2 0 0 1 .872-.32 2.1 2.1 0 0 0 .08-.68c-.64.03-1.286.04-1.936.04-.7 0-1.35-.01-1.936-.04a2.074 2.074 0 0 0 .08.68 1.2 1.2 0 0 1 .872.32 1.76 1.76 0 0 1 .232 1.08v6.75a1.8 1.8 0 0 1 -.232 1.08 1.158 1.158 0 0 1 -.872.31 2.185 2.185 0 0 0 -.08.69c.544-.03 1.189-.05 1.936-.05.65 0 1.3.02 1.936.05a2.215 2.215 0 0 0 -.08-.69 1.154 1.154 0 0 1 -.872-.31 1.794 1.794 0 0 1 -.232-1.08v-3.07c.81-.07 2.437-.1 4.88-.1v3.17a1.8 1.8 0 0 1 -.232 1.08 1.158 1.158 0 0 1 -.872.31 2.185 2.185 0 0 0 -.08.69c.544-.03 1.189-.05 1.936-.05.65 0 1.3.02 1.936.05a2.215 2.215 0 0 0 -.08-.69 1.154 1.154 0 0 1 -.872-.31 1.794 1.794 0 0 1 -.232-1.08zm14.176-.71a4.8 4.8 0 0 1 -.552 1.17 1.8 1.8 0 0 1 -.872.63 5 5 0 0 1 -1.7.22h-.1a2.432 2.432 0 0 1 -.92-.13.7.7 0 0 1 -.424-.44 2.854 2.854 0 0 1 -.112-.92v-2.89h1.008a2.37 2.37 0 0 1 1.368.29 1.558 1.558 0 0 1 .44 1.13 3.087 3.087 0 0 0 .736.08q-.033-.54-.032-1.86 0-1.2.032-1.74a2.908 2.908 0 0 0 -.768.11 1.214 1.214 0 0 1 -.392 1.03 2.524 2.524 0 0 1 -1.384.27h-1.008v-4.39h1.488a2.746 2.746 0 0 1 1.976.57 2.3 2.3 0 0 1 .648 1.47 1.124 1.124 0 0 0 .72-.2 20.949 20.949 0 0 1 -.336-2.52c-1.056.03-2.555.04-4.5.04-1.163 0-2.059-.01-2.688-.04a2.074 2.074 0 0 0 .08.68 1.2 1.2 0 0 1 .872.32 1.76 1.76 0 0 1 .232 1.08v6.57a3.544 3.544 0 0 1 -.1.96.691.691 0 0 1 -.328.45 1.6 1.6 0 0 1 -.68.16 2.185 2.185 0 0 0 -.08.69c.8-.03 2.181-.05 4.144-.05q2.175 0 3.424.03a13.9 13.9 0 0 1 .5-2.38 1.74 1.74 0 0 0 -.7-.39zm17.344-8.11-2.032.03c-.9 0-1.622-.01-2.176-.04a2.074 2.074 0 0 0 .08.68 1.2 1.2 0 0 1 .872.32 1.76 1.76 0 0 1 .232 1.08v6.75a1.8 1.8 0 0 1 -.232 1.08 1.158 1.158 0 0 1 -.872.31 2.185 2.185 0 0 0 -.08.69c.416-.03 1.141-.05 2.176-.05.853 0 1.525.02 2.016.05a2.215 2.215 0 0 0 -.08-.69 2.39 2.39 0 0 1 -.84-.17.852.852 0 0 1 -.44-.49 2.957 2.957 0 0 1 -.144-1.05v-7.7a4.346 4.346 0 0 1 .816-.09 2.553 2.553 0 0 1 2.048.76 3.088 3.088 0 0 1 .656 2.1c0 1.66-.752 2.5-2.256 2.5a3.84 3.84 0 0 1 -.848-.1 1.214 1.214 0 0 0 -.048.35 1.906 1.906 0 0 0 .032.31 3.259 3.259 0 0 0 1.12.17 3.521 3.521 0 0 0 1.976-.53 3.368 3.368 0 0 0 1.24-1.36 4.005 4.005 0 0 0 .416-1.8 3.037 3.037 0 0 0 -.88-2.24 3.784 3.784 0 0 0 -2.752-.87zm16.4 8.61c-.5-.85-.88-1.47-1.136-1.85a9.539 9.539 0 0 0 -.944-1.16 3.856 3.856 0 0 0 1.976-1.09 2.589 2.589 0 0 0 .712-1.82 2.41 2.41 0 0 0 -.88-1.94 3.93 3.93 0 0 0 -2.608-.75l-1.344.02c-.3.01-.742.01-1.328.01q-1.281 0-1.92-.03a2.26 2.26 0 0 0 .08.67 1.052 1.052 0 0 1 .872.3 1.875 1.875 0 0 1 .232 1.1v6.75a1.851 1.851 0 0 1 -.224 1.08 1.152 1.152 0 0 1 -.88.31 2.362 2.362 0 0 0 -.08.69c.48-.03 1.12-.05 1.92-.05s1.445.02 1.9.05a2.3 2.3 0 0 0 -.08-.69 1.075 1.075 0 0 1 -.84-.31 1.9 1.9 0 0 1 -.216-1.08v-2.9q.384.03.624.03l.5-.01a11.283 11.283 0 0 1 1.08 1.32c.272.4.573.9.9 1.49l.192.36c.309.6.666 1.23 1.072 1.88a17.543 17.543 0 0 1 2.512-.14 2.759 2.759 0 0 0 .064-.69 3.037 3.037 0 0 1 -.936-.17 1.638 1.638 0 0 1 -.6-.45 6.7 6.7 0 0 1 -.624-.93zm-4.784-3.42v-4.36a6.106 6.106 0 0 1 1.184-.12 3 3 0 0 1 2.008.56 2.277 2.277 0 0 1 -.232 3.36 3.876 3.876 0 0 1 -2.256.6 6 6 0 0 1 -.7-.04zm17.039 5.8a5.092 5.092 0 0 0 4.616-2.74 6.333 6.333 0 0 0 0-5.71 4.838 4.838 0 0 0 -1.888-1.95 5.572 5.572 0 0 0 -5.408 0 5.116 5.116 0 0 0 -1.9 1.96 5.806 5.806 0 0 0 -.7 2.86 6.1 6.1 0 0 0 .664 2.86 5.079 5.079 0 0 0 1.864 2 5.246 5.246 0 0 0 2.752.72zm.32-.78a3.226 3.226 0 0 1 -2.112-.73 4.567 4.567 0 0 1 -1.368-1.93 6.946 6.946 0 0 1 -.472-2.57 5.659 5.659 0 0 1 .424-2.26 3.642 3.642 0 0 1 1.176-1.52 2.839 2.839 0 0 1 1.7-.54 3.286 3.286 0 0 1 2.032.69 4.6 4.6 0 0 1 1.432 1.87 6.419 6.419 0 0 1 .52 2.61 5.962 5.962 0 0 1 -.4 2.23 3.534 3.534 0 0 1 -1.16 1.57 2.811 2.811 0 0 1 -1.768.58zm14.416-10.21c-.416 0-.731.01-.944.02l-.944.01c-1 0-1.749-.01-2.24-.04a2.1 2.1 0 0 0 .08.68 1.2 1.2 0 0 1 .872.32 1.753 1.753 0 0 1 .232 1.08v6.57a3.264 3.264 0 0 1 -.1.95.736.736 0 0 1 -.336.46 1.6 1.6 0 0 1 -.68.16 2.215 2.215 0 0 0 -.08.69c.8-.03 2.181-.05 4.144-.05a7.932 7.932 0 0 0 4.152-1.15q1.927-1.155 1.928-4.53c0-1.98-.573-3.34-1.72-4.07a7.982 7.982 0 0 0 -4.36-1.1zm0 10.13a2.373 2.373 0 0 1 -.912-.13.713.713 0 0 1 -.416-.43 2.841 2.841 0 0 1 -.112-.93v-7.89a4 4 0 0 1 .552-.1 4.838 4.838 0 0 1 .632-.04 5.439 5.439 0 0 1 2.336.5 3.885 3.885 0 0 1 1.7 1.57 5.234 5.234 0 0 1 .648 2.73 4.76 4.76 0 0 1 -1.176 3.64 4.632 4.632 0 0 1 -3.256 1.08zm19.6-3.58v-3.84a6.915 6.915 0 0 1 .08-1.21 1.053 1.053 0 0 1 .28-.6 1.11 1.11 0 0 1 .584-.23 4.089 4.089 0 0 0 .08-.68c-.416.03-.923.04-1.52.04-.64 0-1.141-.01-1.5-.04a3.5 3.5 0 0 0 .08.68 1.368 1.368 0 0 1 .712.24.921.921 0 0 1 .312.58 6.811 6.811 0 0 1 .08 1.22v3.96a8.441 8.441 0 0 1 -.152 1.87 2.1 2.1 0 0 1 -.536 1 1.9 1.9 0 0 1 -.776.45 2.769 2.769 0 0 1 -.92.16 2.421 2.421 0 0 1 -2.1-.86 3.977 3.977 0 0 1 -.616-2.36v-4.86a3.423 3.423 0 0 1 .08-.88.566.566 0 0 1 .3-.36 2.511 2.511 0 0 1 .728-.16 2.569 2.569 0 0 0 .08-.68c-.48.03-1.1.04-1.856.04-.811 0-1.429-.01-1.856-.04a2.569 2.569 0 0 0 .08.68 1.93 1.93 0 0 1 .608.16.625.625 0 0 1 .264.39 3.593 3.593 0 0 1 .072.85v5.08a4.1 4.1 0 0 0 .888 2.9 4.036 4.036 0 0 0 3.032.94 3.5 3.5 0 0 0 2.592-.91 2.729 2.729 0 0 0 .72-1.31 9.83 9.83 0 0 0 .192-2.22zm11.168 4.44a6.216 6.216 0 0 0 2.1-.33 7.427 7.427 0 0 0 1.9-1.09.8.8 0 0 0 -.1-.26 1.077 1.077 0 0 0 -.184-.24 6.431 6.431 0 0 1 -1.488.69 5.115 5.115 0 0 1 -1.552.26 3.6 3.6 0 0 1 -2.176-.67 4.157 4.157 0 0 1 -1.416-1.82 6.621 6.621 0 0 1 -.488-2.6 5.81 5.81 0 0 1 .4-2.18 3.406 3.406 0 0 1 3.392-2.2 2.346 2.346 0 0 1 1.744.6 3.329 3.329 0 0 1 .656 2.2 2.162 2.162 0 0 0 .848-.15 12.907 12.907 0 0 1 .176-2.48 8.683 8.683 0 0 0 -1.744-.63 7.915 7.915 0 0 0 -1.808-.2 5.784 5.784 0 0 0 -2.632.62 4.883 4.883 0 0 0 -1.968 1.86 5.683 5.683 0 0 0 -.744 2.99 6.389 6.389 0 0 0 .648 2.93 4.816 4.816 0 0 0 4.44 2.7zm17.488-11c-.587.03-1.958.04-4.112.04-2.123 0-3.483-.01-4.08-.04a14.939 14.939 0 0 1 -.256 2.56 1.631 1.631 0 0 0 .768.14 5.474 5.474 0 0 1 .3-1.1 1.329 1.329 0 0 1 .568-.62 2.338 2.338 0 0 1 1.136-.23h.816v8.08a2.567 2.567 0 0 1 -.1.83.69.69 0 0 1 -.376.41 2.413 2.413 0 0 1 -.8.15 2.185 2.185 0 0 0 -.08.69c.6-.03 1.3-.05 2.1-.05.714 0 1.413.02 2.1.05a2.215 2.215 0 0 0 -.08-.69 2.326 2.326 0 0 1 -.792-.15.645.645 0 0 1 -.36-.4 2.787 2.787 0 0 1 -.1-.84v-8.08h.848a1.69 1.69 0 0 1 1.344.49 2.315 2.315 0 0 1 .464 1.46 1.8 1.8 0 0 0 .8-.14c-.075-.9-.112-1.56-.112-1.99zm6.432 2.08v6.75a1.8 1.8 0 0 1 -.232 1.08 1.158 1.158 0 0 1 -.872.31 2.185 2.185 0 0 0 -.08.69c.544-.03 1.189-.05 1.936-.05.65 0 1.3.02 1.936.05a2.215 2.215 0 0 0 -.08-.69 1.154 1.154 0 0 1 -.872-.31 1.794 1.794 0 0 1 -.232-1.08v-6.75a1.753 1.753 0 0 1 .232-1.08 1.2 1.2 0 0 1 .872-.32 2.1 2.1 0 0 0 .08-.68c-.64.03-1.286.04-1.936.04-.7 0-1.35-.01-1.936-.04a2.074 2.074 0 0 0 .08.68 1.2 1.2 0 0 1 .872.32 1.76 1.76 0 0 1 .232 1.08zm13.264 8.92a5.092 5.092 0 0 0 4.616-2.74 6.333 6.333 0 0 0 0-5.71 4.851 4.851 0 0 0 -1.888-1.95 5.572 5.572 0 0 0 -5.408 0 5.109 5.109 0 0 0 -1.9 1.96 5.806 5.806 0 0 0 -.7 2.86 6.084 6.084 0 0 0 .664 2.86 5.072 5.072 0 0 0 1.864 2 5.243 5.243 0 0 0 2.752.72zm.32-.78a3.222 3.222 0 0 1 -2.112-.73 4.55 4.55 0 0 1 -1.368-1.93 6.926 6.926 0 0 1 -.472-2.57 5.642 5.642 0 0 1 .424-2.26 3.626 3.626 0 0 1 1.176-1.52 2.835 2.835 0 0 1 1.7-.54 3.288 3.288 0 0 1 2.032.69 4.606 4.606 0 0 1 1.432 1.87 6.436 6.436 0 0 1 .52 2.61 5.982 5.982 0 0 1 -.4 2.23 3.548 3.548 0 0 1 -1.16 1.57 2.813 2.813 0 0 1 -1.768.58zm19.071-10.18c-.544 0-1.045-.01-1.5-.04a4.329 4.329 0 0 0 .08.68.987.987 0 0 1 .672.21 1.2 1.2 0 0 1 .336.69 7.506 7.506 0 0 1 .1 1.38v5.29l-6.224-8.25c-.288.03-.645.04-1.072.04-.469 0-.864-.01-1.184-.04a2.569 2.569 0 0 0 .08.68 2.182 2.182 0 0 1 .616.13 1.442 1.442 0 0 1 .424.37l.064.08v6.61a7.928 7.928 0 0 1 -.1 1.42 1.237 1.237 0 0 1 -.336.71.943.943 0 0 1 -.672.22 2.3 2.3 0 0 0 -.08.69c.406-.03.939-.05 1.6-.05.576 0 1.1.02 1.584.05a2.272 2.272 0 0 0 -.08-.69.943.943 0 0 1 -.672-.22 1.237 1.237 0 0 1 -.336-.71 7.928 7.928 0 0 1 -.1-1.42v-5.54l6.608 8.63a2.1 2.1 0 0 0 .688-.1v-7.9a8.194 8.194 0 0 1 .088-1.37 1.356 1.356 0 0 1 .288-.7.749.749 0 0 1 .568-.21 2.528 2.528 0 0 0 .08-.68c-.437.03-.944.04-1.52.04zm18.1-.03c-.416 0-.731.01-.944.02l-.944.01c-1 0-1.749-.01-2.24-.04a2.1 2.1 0 0 0 .08.68 1.2 1.2 0 0 1 .872.32 1.753 1.753 0 0 1 .232 1.08v6.57a3.264 3.264 0 0 1 -.1.95.736.736 0 0 1 -.336.46 1.6 1.6 0 0 1 -.68.16 2.215 2.215 0 0 0 -.08.69c.8-.03 2.181-.05 4.144-.05a7.932 7.932 0 0 0 4.152-1.15q1.928-1.155 1.928-4.53c0-1.98-.573-3.34-1.72-4.07a7.982 7.982 0 0 0 -4.36-1.1zm0 10.13a2.373 2.373 0 0 1 -.912-.13.713.713 0 0 1 -.416-.43 2.841 2.841 0 0 1 -.112-.93v-7.89a4 4 0 0 1 .552-.1 4.838 4.838 0 0 1 .632-.04 5.439 5.439 0 0 1 2.336.5 3.885 3.885 0 0 1 1.7 1.57 5.234 5.234 0 0 1 .648 2.73 4.76 4.76 0 0 1 -1.176 3.64 4.632 4.632 0 0 1 -3.256 1.08zm18.736-2.02a4.73 4.73 0 0 1 -.552 1.17 1.794 1.794 0 0 1 -.872.63 5 5 0 0 1 -1.7.22h-.1a2.436 2.436 0 0 1 -.92-.13.7.7 0 0 1 -.424-.44 2.854 2.854 0 0 1 -.112-.92v-2.89h1.008a2.37 2.37 0 0 1 1.368.29 1.554 1.554 0 0 1 .44 1.13 3.094 3.094 0 0 0 .736.08q-.031-.54-.032-1.86 0-1.2.032-1.74a2.908 2.908 0 0 0 -.768.11 1.211 1.211 0 0 1 -.392 1.03 2.524 2.524 0 0 1 -1.384.27h-1.008v-4.39h1.488a2.744 2.744 0 0 1 1.976.57 2.293 2.293 0 0 1 .648 1.47 1.124 1.124 0 0 0 .72-.2 21.375 21.375 0 0 1 -.336-2.52c-1.056.03-2.555.04-4.5.04-1.163 0-2.059-.01-2.688-.04a2.1 2.1 0 0 0 .08.68 1.2 1.2 0 0 1 .872.32 1.753 1.753 0 0 1 .232 1.08v6.57a3.544 3.544 0 0 1 -.1.96.688.688 0 0 1 -.328.45 1.6 1.6 0 0 1 -.68.16 2.215 2.215 0 0 0 -.08.69c.8-.03 2.181-.05 4.144-.05q2.177 0 3.424.03a13.9 13.9 0 0 1 .5-2.38 1.74 1.74 0 0 0 -.7-.39zm10.3-8.11-2.032.03c-.9 0-1.621-.01-2.176-.04a2.1 2.1 0 0 0 .08.68 1.2 1.2 0 0 1 .872.32 1.753 1.753 0 0 1 .232 1.08v6.75a1.794 1.794 0 0 1 -.232 1.08 1.156 1.156 0 0 1 -.872.31 2.215 2.215 0 0 0 -.08.69c.416-.03 1.141-.05 2.176-.05.853 0 1.525.02 2.016.05a2.215 2.215 0 0 0 -.08-.69 2.39 2.39 0 0 1 -.84-.17.855.855 0 0 1 -.44-.49 2.957 2.957 0 0 1 -.144-1.05v-7.7a4.346 4.346 0 0 1 .816-.09 2.552 2.552 0 0 1 2.048.76 3.088 3.088 0 0 1 .656 2.1c0 1.66-.752 2.5-2.256 2.5a3.847 3.847 0 0 1 -.848-.1 1.214 1.214 0 0 0 -.048.35 2.026 2.026 0 0 0 .032.31 3.263 3.263 0 0 0 1.12.17 3.519 3.519 0 0 0 1.976-.53 3.36 3.36 0 0 0 1.24-1.36 4.005 4.005 0 0 0 .416-1.8 3.033 3.033 0 0 0 -.88-2.24 3.784 3.784 0 0 0 -2.752-.87zm18.8 10.21a.947.947 0 0 1 -.6-.35 6.1 6.1 0 0 1 -.632-1.19l-3.808-8.73a2.91 2.91 0 0 0 -.624.06l-3.312 8.5a6.812 6.812 0 0 1 -.624 1.31 1.059 1.059 0 0 1 -.656.42 1.736 1.736 0 0 0 -.112.67c.608-.03 1.05-.05 1.328-.05.65 0 1.157.02 1.52.05a1.83 1.83 0 0 0 -.112-.69 1.2 1.2 0 0 1 -.632-.18.559.559 0 0 1 -.2-.48 3.215 3.215 0 0 1 .256-1.05l.432-1.11q1.68-.06 4.224-.06l.7 1.63a2.828 2.828 0 0 1 .24.79.339.339 0 0 1 -.184.32 2.018 2.018 0 0 1 -.632.14 1.614 1.614 0 0 0 -.112.69c.64-.03 1.242-.05 1.808-.05s1.184.02 1.824.05a2.358 2.358 0 0 0 -.1-.69zm-7.488-3.6 1.1-2.86c.288-.79.49-1.37.608-1.73q.223.645.7 1.74l1.216 2.85h-3.632zm20.192 2c-.5-.85-.88-1.47-1.136-1.85a9.539 9.539 0 0 0 -.944-1.16 3.856 3.856 0 0 0 1.976-1.09 2.589 2.589 0 0 0 .712-1.82 2.41 2.41 0 0 0 -.88-1.94 3.93 3.93 0 0 0 -2.608-.75l-1.344.02c-.3.01-.742.01-1.328.01q-1.281 0-1.92-.03a2.26 2.26 0 0 0 .08.67 1.052 1.052 0 0 1 .872.3 1.875 1.875 0 0 1 .232 1.1v6.75a1.851 1.851 0 0 1 -.224 1.08 1.152 1.152 0 0 1 -.88.31 2.362 2.362 0 0 0 -.08.69c.48-.03 1.12-.05 1.92-.05s1.445.02 1.9.05a2.3 2.3 0 0 0 -.08-.69 1.075 1.075 0 0 1 -.84-.31 1.9 1.9 0 0 1 -.216-1.08v-2.9q.384.03.624.03l.5-.01a11.283 11.283 0 0 1 1.08 1.32c.272.4.573.9.9 1.49l.192.36c.309.6.666 1.23 1.072 1.88a17.543 17.543 0 0 1 2.512-.14 2.759 2.759 0 0 0 .064-.69 3.037 3.037 0 0 1 -.936-.17 1.638 1.638 0 0 1 -.6-.45 6.7 6.7 0 0 1 -.624-.93zm-4.784-3.42v-4.36a6.106 6.106 0 0 1 1.184-.12 3 3 0 0 1 2.008.56 2.277 2.277 0 0 1 -.232 3.36 3.876 3.876 0 0 1 -2.256.6 6 6 0 0 1 -.7-.04zm20.048-5.2c-.587.03-1.958.04-4.112.04-2.123 0-3.483-.01-4.08-.04a14.939 14.939 0 0 1 -.256 2.56 1.631 1.631 0 0 0 .768.14 5.474 5.474 0 0 1 .3-1.1 1.329 1.329 0 0 1 .568-.62 2.338 2.338 0 0 1 1.136-.23h.816v8.08a2.567 2.567 0 0 1 -.1.83.69.69 0 0 1 -.376.41 2.413 2.413 0 0 1 -.8.15 2.185 2.185 0 0 0 -.08.69c.6-.03 1.3-.05 2.1-.05.714 0 1.413.02 2.1.05a2.215 2.215 0 0 0 -.08-.69 2.326 2.326 0 0 1 -.792-.15.645.645 0 0 1 -.36-.4 2.787 2.787 0 0 1 -.1-.84v-8.08h.848a1.69 1.69 0 0 1 1.344.49 2.315 2.315 0 0 1 .464 1.46 1.8 1.8 0 0 0 .8-.14c-.075-.9-.112-1.56-.112-1.99zm18.608 10.2a1.162 1.162 0 0 1 -.608-.2 1.188 1.188 0 0 1 -.352-.6 6.857 6.857 0 0 1 -.208-1.23l-.576-5.87a3.811 3.811 0 0 1 -.016-.4 1.271 1.271 0 0 1 .28-.94 1.144 1.144 0 0 1 .824-.28 2.677 2.677 0 0 0 .08-.68c-.427.03-.832.04-1.216.04-.47 0-.886-.01-1.248-.04l-3.488 8.84-4-8.84c-.416.03-.822.04-1.216.04-.491 0-.9-.01-1.216-.04a2.333 2.333 0 0 0 .08.68 1.146 1.146 0 0 1 .832.26 1.217 1.217 0 0 1 .256.88 3.66 3.66 0 0 1 -.016.38l-.512 5.7a9 9 0 0 1 -.232 1.45 1.223 1.223 0 0 1 -.376.65 1.476 1.476 0 0 1 -.688.22 2.456 2.456 0 0 0 -.08.69c.437-.03.97-.05 1.6-.05s1.2.02 1.712.05a2.493 2.493 0 0 0 -.08-.69 1.191 1.191 0 0 1 -.84-.33 1.526 1.526 0 0 1 -.248-1.01q0-.36.048-.84l.512-5.13 3.728 8.09a1.628 1.628 0 0 0 .656-.11l3.312-8 .576 5.49c.032.32.048.59.048.8a1.1 1.1 0 0 1 -.208.77 1.364 1.364 0 0 1 -.816.27 2.264 2.264 0 0 0 -.1.69c.544-.03 1.194-.05 1.952-.05.789 0 1.429.02 1.92.05a2.651 2.651 0 0 0 -.08-.71zm12.736-2.08a4.8 4.8 0 0 1 -.552 1.17 1.8 1.8 0 0 1 -.872.63 5 5 0 0 1 -1.7.22h-.1a2.432 2.432 0 0 1 -.92-.13.7.7 0 0 1 -.424-.44 2.854 2.854 0 0 1 -.112-.92v-2.89h1.011a2.37 2.37 0 0 1 1.368.29 1.558 1.558 0 0 1 .44 1.13 3.087 3.087 0 0 0 .736.08q-.033-.54-.032-1.86 0-1.2.032-1.74a2.908 2.908 0 0 0 -.768.11 1.214 1.214 0 0 1 -.392 1.03 2.524 2.524 0 0 1 -1.384.27h-1.008v-4.39h1.488a2.746 2.746 0 0 1 1.976.57 2.3 2.3 0 0 1 .648 1.47 1.124 1.124 0 0 0 .72-.2 20.949 20.949 0 0 1 -.336-2.52c-1.056.03-2.555.04-4.5.04-1.163 0-2.059-.01-2.688-.04a2.074 2.074 0 0 0 .08.68 1.2 1.2 0 0 1 .872.32 1.76 1.76 0 0 1 .232 1.08v6.57a3.544 3.544 0 0 1 -.1.96.691.691 0 0 1 -.328.45 1.6 1.6 0 0 1 -.68.16 2.185 2.185 0 0 0 -.08.69c.8-.03 2.181-.05 4.144-.05q2.175 0 3.424.03a13.9 13.9 0 0 1 .5-2.38 1.74 1.74 0 0 0 -.7-.39zm14.9-8.08c-.544 0-1.046-.01-1.5-.04a4.238 4.238 0 0 0 .081.68.987.987 0 0 1 .672.21 1.2 1.2 0 0 1 .336.69 7.506 7.506 0 0 1 .1 1.38v5.29l-6.224-8.25c-.288.03-.646.04-1.073.04-.469 0-.863-.01-1.183-.04a2.528 2.528 0 0 0 .08.68 2.2 2.2 0 0 1 .616.13 1.467 1.467 0 0 1 .424.37l.063.08v6.61a7.946 7.946 0 0 1 -.1 1.42 1.237 1.237 0 0 1 -.336.71.943.943 0 0 1 -.672.22 2.272 2.272 0 0 0 -.08.69c.4-.03.938-.05 1.6-.05.576 0 1.1.02 1.583.05a2.309 2.309 0 0 0 -.079-.69.943.943 0 0 1 -.672-.22 1.237 1.237 0 0 1 -.336-.71 7.928 7.928 0 0 1 -.1-1.42v-5.54l6.608 8.63a2.09 2.09 0 0 0 .687-.1v-7.9a8.067 8.067 0 0 1 .089-1.37 1.339 1.339 0 0 1 .288-.7.745.745 0 0 1 .567-.21 2.525 2.525 0 0 0 .081-.68c-.438.03-.944.04-1.52.04zm14.863-.04c-.586.03-1.957.04-4.112.04-2.122 0-3.482-.01-4.08-.04a14.839 14.839 0 0 1 -.256 2.56 1.631 1.631 0 0 0 .768.14 5.542 5.542 0 0 1 .3-1.1 1.334 1.334 0 0 1 .568-.62 2.343 2.343 0 0 1 1.136-.23h.816v8.08a2.539 2.539 0 0 1 -.1.83.684.684 0 0 1 -.376.41 2.407 2.407 0 0 1 -.8.15 2.215 2.215 0 0 0 -.08.69c.6-.03 1.3-.05 2.1-.05.715 0 1.414.02 2.1.05a2.185 2.185 0 0 0 -.08-.69 2.326 2.326 0 0 1 -.792-.15.645.645 0 0 1 -.36-.4 2.787 2.787 0 0 1 -.1-.84v-8.08h.848a1.69 1.69 0 0 1 1.344.49 2.309 2.309 0 0 1 .464 1.46 1.8 1.8 0 0 0 .8-.14c-.074-.9-.112-1.56-.112-1.99z" fill-rule="evenodd" transform="translate(-125.562 -5736.81)"/></svg>