<svg height="11.126" viewBox="0 0 290.031 11.126" width="290.031" xmlns="http://www.w3.org/2000/svg"><path d="m221.417 737.683-2.032.032q-1.344 0-2.176-.048a2.205 2.205 0 0 0 .08.688 1.17 1.17 0 0 1 .872.312 1.778 1.778 0 0 1 .232 1.08v6.753a1.782 1.782 0 0 1 -.232 1.08 1.178 1.178 0 0 1 -.872.312 2.2 2.2 0 0 0 -.08.688q.624-.048 2.176-.048 1.281 0 2.016.048a2.167 2.167 0 0 0 -.08-.688 2.453 2.453 0 0 1 -.84-.168.871.871 0 0 1 -.44-.5 2.952 2.952 0 0 1 -.144-1.048v-7.7a4.1 4.1 0 0 1 .816-.1 2.562 2.562 0 0 1 2.048.76 3.112 3.112 0 0 1 .656 2.1q0 2.5-2.256 2.5a3.63 3.63 0 0 1 -.848-.1 1.218 1.218 0 0 0 -.048.352 2.009 2.009 0 0 0 .032.3 3.093 3.093 0 0 0 1.12.176 3.584 3.584 0 0 0 1.976-.528 3.387 3.387 0 0 0 1.24-1.368 3.992 3.992 0 0 0 .416-1.8 3.005 3.005 0 0 0 -.88-2.232 3.774 3.774 0 0 0 -2.752-.872zm16.4 8.608q-.752-1.281-1.136-1.848a9.085 9.085 0 0 0 -.944-1.16 3.932 3.932 0 0 0 1.976-1.088 2.591 2.591 0 0 0 .712-1.824 2.423 2.423 0 0 0 -.88-1.944 3.95 3.95 0 0 0 -2.608-.744l-1.344.016q-.447.015-1.328.016-1.279 0-1.92-.032a2.327 2.327 0 0 0 .08.672 1.055 1.055 0 0 1 .872.3 1.859 1.859 0 0 1 .232 1.1v6.745a1.83 1.83 0 0 1 -.224 1.08 1.172 1.172 0 0 1 -.88.312 2.391 2.391 0 0 0 -.08.688q.72-.048 1.92-.048 1.216 0 1.9.048a2.261 2.261 0 0 0 -.08-.688 1.1 1.1 0 0 1 -.84-.312 1.89 1.89 0 0 1 -.216-1.08v-2.9q.384.032.624.032l.5-.016a11.283 11.283 0 0 1 1.08 1.32q.408.6.9 1.5l.192.352q.465.912 1.072 1.888a16.6 16.6 0 0 1 2.512-.144 2.7 2.7 0 0 0 .064-.688 2.915 2.915 0 0 1 -.936-.176 1.584 1.584 0 0 1 -.6-.448 7.322 7.322 0 0 1 -.624-.928zm-4.784-3.424v-4.352a5.7 5.7 0 0 1 1.184-.128 2.948 2.948 0 0 1 2.008.568 2.007 2.007 0 0 1 .632 1.576 2.03 2.03 0 0 1 -.864 1.784 3.876 3.876 0 0 1 -2.256.6 5.715 5.715 0 0 1 -.7-.048zm17.04 5.808a5.115 5.115 0 0 0 4.616-2.744 6.337 6.337 0 0 0 0-5.712 4.888 4.888 0 0 0 -1.888-1.952 5.365 5.365 0 0 0 -2.728-.7 5.219 5.219 0 0 0 -2.68.7 5.055 5.055 0 0 0 -1.9 1.96 5.791 5.791 0 0 0 -.7 2.856 6.074 6.074 0 0 0 .664 2.856 5 5 0 0 0 1.864 2 5.2 5.2 0 0 0 2.752.728zm.32-.784a3.247 3.247 0 0 1 -2.112-.728 4.6 4.6 0 0 1 -1.368-1.928 6.969 6.969 0 0 1 -.472-2.576 5.608 5.608 0 0 1 .424-2.256 3.586 3.586 0 0 1 1.176-1.52 2.821 2.821 0 0 1 1.7-.544 3.29 3.29 0 0 1 2.032.688 4.6 4.6 0 0 1 1.427 1.873 6.406 6.406 0 0 1 .52 2.608 5.958 5.958 0 0 1 -.4 2.232 3.605 3.605 0 0 1 -1.16 1.576 2.846 2.846 0 0 1 -1.768.576zm14.416-10.208q-.624 0-.944.016l-.944.016q-1.5 0-2.24-.048a2.175 2.175 0 0 0 .08.688 1.174 1.174 0 0 1 .872.312 1.785 1.785 0 0 1 .232 1.08v6.576a3.341 3.341 0 0 1 -.1.952.756.756 0 0 1 -.336.456 1.716 1.716 0 0 1 -.68.16 2.167 2.167 0 0 0 -.08.688q1.2-.048 4.144-.048a7.958 7.958 0 0 0 4.152-1.152q1.927-1.152 1.928-4.528 0-2.976-1.72-4.072a7.973 7.973 0 0 0 -4.36-1.1zm0 10.128a2.474 2.474 0 0 1 -.912-.128.724.724 0 0 1 -.416-.432 2.856 2.856 0 0 1 -.112-.928v-7.888a3.081 3.081 0 0 1 .552-.1 5.58 5.58 0 0 1 2.968.456 3.9 3.9 0 0 1 1.7 1.576 5.229 5.229 0 0 1 .648 2.728 4.766 4.766 0 0 1 -1.176 3.64 4.634 4.634 0 0 1 -3.256 1.08zm19.6-3.584v-3.84a6.862 6.862 0 0 1 .08-1.208 1.028 1.028 0 0 1 .28-.6 1.062 1.062 0 0 1 .584-.224 4.271 4.271 0 0 0 .08-.688q-.624.048-1.52.048-.96 0-1.5-.048a3.537 3.537 0 0 0 .08.688 1.362 1.362 0 0 1 .712.232.956.956 0 0 1 .312.584 6.775 6.775 0 0 1 .08 1.216v3.968a8.435 8.435 0 0 1 -.152 1.864 2.094 2.094 0 0 1 -.536 1 1.92 1.92 0 0 1 -.776.456 3.008 3.008 0 0 1 -.92.152 2.418 2.418 0 0 1 -2.1-.856 3.975 3.975 0 0 1 -.616-2.36v-4.864a3.307 3.307 0 0 1 .08-.872.564.564 0 0 1 .3-.368 2.306 2.306 0 0 1 .728-.152 2.611 2.611 0 0 0 .08-.688q-.72.048-1.856.048-1.217 0-1.856-.048a2.57 2.57 0 0 0 .08.688 1.631 1.631 0 0 1 .608.16.591.591 0 0 1 .264.384 3.614 3.614 0 0 1 .072.848v5.088a4.1 4.1 0 0 0 .888 2.9 4.039 4.039 0 0 0 3.032.944 3.506 3.506 0 0 0 2.592-.912 2.735 2.735 0 0 0 .72-1.312 9.888 9.888 0 0 0 .192-2.224zm11.168 4.448a6.115 6.115 0 0 0 2.1-.336 7.213 7.213 0 0 0 1.9-1.088.782.782 0 0 0 -.1-.264.85.85 0 0 0 -.184-.232 6.552 6.552 0 0 1 -1.488.688 5.106 5.106 0 0 1 -1.552.256 3.645 3.645 0 0 1 -2.176-.664 4.168 4.168 0 0 1 -1.416-1.824 6.635 6.635 0 0 1 -.488-2.6 5.756 5.756 0 0 1 .4-2.176 3.425 3.425 0 0 1 3.392-2.208 2.346 2.346 0 0 1 1.744.6 3.335 3.335 0 0 1 .656 2.2 2.242 2.242 0 0 0 .848-.144 12.871 12.871 0 0 1 .176-2.48 9.016 9.016 0 0 0 -1.744-.632 7.7 7.7 0 0 0 -1.808-.2 5.712 5.712 0 0 0 -2.632.624 4.833 4.833 0 0 0 -1.968 1.856 5.683 5.683 0 0 0 -.744 2.992 6.4 6.4 0 0 0 .648 2.928 4.85 4.85 0 0 0 1.808 1.992 4.933 4.933 0 0 0 2.632.712zm17.488-11.008q-.88.048-4.112.048-3.184 0-4.08-.048a14.883 14.883 0 0 1 -.256 2.56 1.552 1.552 0 0 0 .768.144 5.26 5.26 0 0 1 .3-1.1 1.3 1.3 0 0 1 .568-.624 2.28 2.28 0 0 1 1.136-.232h.811v8.08a2.581 2.581 0 0 1 -.1.832.681.681 0 0 1 -.376.408 2.457 2.457 0 0 1 -.8.152 2.167 2.167 0 0 0 -.08.688q.9-.048 2.1-.048 1.071 0 2.1.048a2.2 2.2 0 0 0 -.08-.688 2.368 2.368 0 0 1 -.792-.152.655.655 0 0 1 -.36-.4 2.76 2.76 0 0 1 -.1-.84v-8.08h.848a1.689 1.689 0 0 1 1.344.5 2.281 2.281 0 0 1 .464 1.456 1.723 1.723 0 0 0 .8-.144q-.113-1.344-.112-1.984zm6.432 2.08v6.753a1.789 1.789 0 0 1 -.232 1.08 1.182 1.182 0 0 1 -.872.312 2.167 2.167 0 0 0 -.08.688q.816-.048 1.936-.048.975 0 1.936.048a2.2 2.2 0 0 0 -.08-.688 1.178 1.178 0 0 1 -.872-.312 1.782 1.782 0 0 1 -.233-1.08v-6.752a1.778 1.778 0 0 1 .232-1.08 1.17 1.17 0 0 1 .872-.312 2.205 2.205 0 0 0 .08-.688q-.96.048-1.936.048-1.056 0-1.936-.048a2.175 2.175 0 0 0 .08.688 1.174 1.174 0 0 1 .872.312 1.785 1.785 0 0 1 .232 1.08zm13.263 8.928a5.115 5.115 0 0 0 4.616-2.744 6.337 6.337 0 0 0 0-5.712 4.881 4.881 0 0 0 -1.888-1.952 5.362 5.362 0 0 0 -2.728-.7 5.221 5.221 0 0 0 -2.68.7 5.055 5.055 0 0 0 -1.9 1.96 5.791 5.791 0 0 0 -.7 2.856 6.086 6.086 0 0 0 .664 2.856 5 5 0 0 0 1.864 2 5.2 5.2 0 0 0 2.752.728zm.32-.784a3.251 3.251 0 0 1 -2.112-.728 4.6 4.6 0 0 1 -1.368-1.928 6.989 6.989 0 0 1 -.472-2.576 5.625 5.625 0 0 1 .424-2.256 3.586 3.586 0 0 1 1.176-1.52 2.823 2.823 0 0 1 1.7-.544 3.29 3.29 0 0 1 2.032.688 4.59 4.59 0 0 1 1.432 1.872 6.406 6.406 0 0 1 .52 2.608 5.958 5.958 0 0 1 -.4 2.232 3.6 3.6 0 0 1 -1.16 1.576 2.844 2.844 0 0 1 -1.768.576zm19.072-10.176q-.816 0-1.5-.048a4.552 4.552 0 0 0 .08.688.992.992 0 0 1 .672.208 1.192 1.192 0 0 1 .336.688 7.472 7.472 0 0 1 .1 1.376v5.3l-6.224-8.256a9.966 9.966 0 0 1 -1.072.048q-.7 0-1.184-.048a2.611 2.611 0 0 0 .08.688 1.816 1.816 0 0 1 .616.128 1.332 1.332 0 0 1 .424.368l.064.08v6.608a8 8 0 0 1 -.1 1.424 1.257 1.257 0 0 1 -.336.712.969.969 0 0 1 -.672.216 2.294 2.294 0 0 0 -.08.688q.608-.048 1.6-.048.864 0 1.584.048a2.294 2.294 0 0 0 -.08-.688.969.969 0 0 1 -.672-.216 1.257 1.257 0 0 1 -.336-.712 8 8 0 0 1 -.1-1.424v-5.543l6.608 8.624a2.01 2.01 0 0 0 .688-.1v-7.9a8.125 8.125 0 0 1 .088-1.368 1.347 1.347 0 0 1 .288-.7.75.75 0 0 1 .568-.208 2.611 2.611 0 0 0 .08-.688q-.656.048-1.52.048zm18.1-.032q-.624 0-.944.016l-.944.016q-1.5 0-2.24-.048a2.175 2.175 0 0 0 .08.688 1.174 1.174 0 0 1 .872.312 1.785 1.785 0 0 1 .232 1.08v6.576a3.341 3.341 0 0 1 -.1.952.756.756 0 0 1 -.336.456 1.716 1.716 0 0 1 -.68.16 2.167 2.167 0 0 0 -.08.688q1.2-.048 4.144-.048a7.958 7.958 0 0 0 4.152-1.152q1.928-1.152 1.928-4.528 0-2.976-1.72-4.072a7.973 7.973 0 0 0 -4.36-1.1zm0 10.128a2.474 2.474 0 0 1 -.912-.128.724.724 0 0 1 -.416-.432 2.856 2.856 0 0 1 -.112-.928v-7.888a3.081 3.081 0 0 1 .552-.1 5.58 5.58 0 0 1 2.968.456 3.9 3.9 0 0 1 1.7 1.576 5.229 5.229 0 0 1 .648 2.728 4.766 4.766 0 0 1 -1.176 3.64 4.634 4.634 0 0 1 -3.256 1.08zm18.736-2.016a5.074 5.074 0 0 1 -.552 1.168 1.816 1.816 0 0 1 -.872.624 5.01 5.01 0 0 1 -1.7.224h-.1a2.545 2.545 0 0 1 -.92-.128.721.721 0 0 1 -.424-.44 2.867 2.867 0 0 1 -.112-.92v-2.9h1.008a2.3 2.3 0 0 1 1.368.3 1.538 1.538 0 0 1 .44 1.128 2.94 2.94 0 0 0 .736.08q-.033-.545-.032-1.856 0-1.2.032-1.744a2.719 2.719 0 0 0 -.768.112 1.224 1.224 0 0 1 -.392 1.032 2.572 2.572 0 0 1 -1.384.264h-1.008v-4.384h1.492a2.751 2.751 0 0 1 1.976.568 2.287 2.287 0 0 1 .648 1.464 1.137 1.137 0 0 0 .72-.192 21.112 21.112 0 0 1 -.336-2.528q-1.584.048-4.5.048-1.745 0-2.688-.048a2.175 2.175 0 0 0 .08.688 1.174 1.174 0 0 1 .872.312 1.785 1.785 0 0 1 .232 1.08v6.576a3.584 3.584 0 0 1 -.1.96.721.721 0 0 1 -.328.448 1.716 1.716 0 0 1 -.68.16 2.167 2.167 0 0 0 -.08.688q1.2-.048 4.144-.048 2.175 0 3.424.032a13.933 13.933 0 0 1 .5-2.384 1.69 1.69 0 0 0 -.7-.384zm10.3-8.112-2.032.032q-1.344 0-2.176-.048a2.175 2.175 0 0 0 .08.688 1.174 1.174 0 0 1 .872.312 1.785 1.785 0 0 1 .232 1.08v6.753a1.789 1.789 0 0 1 -.232 1.08 1.182 1.182 0 0 1 -.872.312 2.167 2.167 0 0 0 -.08.688q.624-.048 2.176-.048 1.279 0 2.016.048a2.2 2.2 0 0 0 -.08-.688 2.442 2.442 0 0 1 -.84-.168.867.867 0 0 1 -.44-.5 2.952 2.952 0 0 1 -.144-1.048v-7.7a4.086 4.086 0 0 1 .816-.1 2.563 2.563 0 0 1 2.048.76 3.117 3.117 0 0 1 .656 2.1q0 2.5-2.256 2.5a3.618 3.618 0 0 1 -.848-.1 1.218 1.218 0 0 0 -.048.352 1.886 1.886 0 0 0 .032.3 3.089 3.089 0 0 0 1.12.176 3.586 3.586 0 0 0 1.976-.528 3.4 3.4 0 0 0 1.24-1.368 4.005 4.005 0 0 0 .416-1.8 3.009 3.009 0 0 0 -.88-2.232 3.776 3.776 0 0 0 -2.752-.872zm18.8 10.208a.954.954 0 0 1 -.6-.352 6.151 6.151 0 0 1 -.632-1.184l-3.808-8.736a2.716 2.716 0 0 0 -.624.064l-3.312 8.5a6.974 6.974 0 0 1 -.624 1.312 1.014 1.014 0 0 1 -.656.416 1.761 1.761 0 0 0 -.112.672q.912-.048 1.328-.048.975 0 1.52.048a1.83 1.83 0 0 0 -.112-.688 1.21 1.21 0 0 1 -.632-.184.554.554 0 0 1 -.2-.472 3.2 3.2 0 0 1 .256-1.056l.432-1.1q1.68-.064 4.224-.064l.7 1.632a2.773 2.773 0 0 1 .24.784.334.334 0 0 1 -.184.32 1.941 1.941 0 0 1 -.632.144 1.6 1.6 0 0 0 -.112.688q.96-.048 1.808-.048.864 0 1.824.048a2.379 2.379 0 0 0 -.1-.688zm-7.488-3.6 1.1-2.864q.432-1.185.608-1.728.224.639.7 1.744l1.216 2.848zm20.192 2q-.753-1.281-1.136-1.848a9.171 9.171 0 0 0 -.944-1.16 3.941 3.941 0 0 0 1.976-1.088 2.6 2.6 0 0 0 .712-1.824 2.426 2.426 0 0 0 -.88-1.944 3.952 3.952 0 0 0 -2.608-.744l-1.344.016q-.448.015-1.328.016-1.281 0-1.92-.032a2.293 2.293 0 0 0 .08.672 1.058 1.058 0 0 1 .872.3 1.867 1.867 0 0 1 .232 1.1v6.745a1.838 1.838 0 0 1 -.224 1.08 1.175 1.175 0 0 1 -.88.312 2.356 2.356 0 0 0 -.08.688q.72-.048 1.92-.048 1.215 0 1.9.048a2.294 2.294 0 0 0 -.08-.688 1.1 1.1 0 0 1 -.84-.312 1.89 1.89 0 0 1 -.216-1.08v-2.9q.384.032.624.032l.5-.016a11.283 11.283 0 0 1 1.08 1.32q.408.6.9 1.5l.192.352q.464.912 1.072 1.888a16.6 16.6 0 0 1 2.512-.144 2.747 2.747 0 0 0 .064-.688 2.9 2.9 0 0 1 -.936-.176 1.569 1.569 0 0 1 -.6-.448 7.113 7.113 0 0 1 -.624-.928zm-4.784-3.424v-4.352a5.693 5.693 0 0 1 1.184-.128 2.951 2.951 0 0 1 2.008.568 2.277 2.277 0 0 1 -.232 3.36 3.876 3.876 0 0 1 -2.256.6 5.7 5.7 0 0 1 -.7-.048zm20.048-5.2q-.88.048-4.112.048-3.185 0-4.08-.048a14.883 14.883 0 0 1 -.256 2.56 1.552 1.552 0 0 0 .768.144 5.26 5.26 0 0 1 .3-1.1 1.3 1.3 0 0 1 .568-.624 2.28 2.28 0 0 1 1.136-.232h.816v8.08a2.581 2.581 0 0 1 -.1.832.681.681 0 0 1 -.376.408 2.457 2.457 0 0 1 -.8.152 2.167 2.167 0 0 0 -.08.688q.9-.048 2.1-.048 1.071 0 2.1.048a2.2 2.2 0 0 0 -.08-.688 2.368 2.368 0 0 1 -.792-.152.655.655 0 0 1 -.36-.4 2.76 2.76 0 0 1 -.1-.84v-8.08h.848a1.689 1.689 0 0 1 1.344.5 2.281 2.281 0 0 1 .464 1.456 1.723 1.723 0 0 0 .8-.144q-.113-1.344-.112-1.984zm18.607 10.208a1.125 1.125 0 0 1 -.608-.208 1.185 1.185 0 0 1 -.352-.6 6.956 6.956 0 0 1 -.208-1.224l-.576-5.872c-.01-.1-.016-.23-.016-.4a1.291 1.291 0 0 1 .28-.944 1.136 1.136 0 0 1 .824-.272 2.68 2.68 0 0 0 .08-.688q-.639.048-1.216.048-.7 0-1.248-.048l-3.488 8.848-4-8.848q-.624.048-1.216.048-.735 0-1.216-.048a2.4 2.4 0 0 0 .08.688 1.14 1.14 0 0 1 .832.256 1.219 1.219 0 0 1 .256.88 3.553 3.553 0 0 1 -.016.384l-.512 5.7a8.764 8.764 0 0 1 -.232 1.448 1.187 1.187 0 0 1 -.376.648 1.416 1.416 0 0 1 -.688.224 2.493 2.493 0 0 0 -.08.688q.657-.048 1.6-.048t1.712.048a2.455 2.455 0 0 0 -.08-.688 1.221 1.221 0 0 1 -.84-.328 1.564 1.564 0 0 1 -.248-1.016q0-.352.048-.832l.512-5.136 3.728 8.1a1.733 1.733 0 0 0 .656-.112l3.312-8 .576 5.488c.032.32.048.586.048.8a1.085 1.085 0 0 1 -.208.768 1.392 1.392 0 0 1 -.816.272 2.278 2.278 0 0 0 -.1.688q.816-.048 1.952-.048 1.185 0 1.92.048a2.53 2.53 0 0 0 -.08-.7zm12.737-2.075a4.992 4.992 0 0 1 -.552 1.168 1.806 1.806 0 0 1 -.872.624 5.006 5.006 0 0 1 -1.7.224h-.1a2.548 2.548 0 0 1 -.92-.128.724.724 0 0 1 -.424-.44 2.9 2.9 0 0 1 -.112-.92v-2.9h1.008a2.3 2.3 0 0 1 1.368.3 1.53 1.53 0 0 1 .44 1.128 2.946 2.946 0 0 0 .736.08q-.032-.545-.032-1.856 0-1.2.032-1.744a2.719 2.719 0 0 0 -.768.112 1.218 1.218 0 0 1 -.392 1.032 2.569 2.569 0 0 1 -1.384.264h-1.008v-4.384h1.488a2.748 2.748 0 0 1 1.976.568 2.277 2.277 0 0 1 .648 1.464 1.137 1.137 0 0 0 .72-.192 21.542 21.542 0 0 1 -.336-2.528q-1.584.048-4.5.048-1.743 0-2.688-.048a2.205 2.205 0 0 0 .08.688 1.17 1.17 0 0 1 .872.312 1.778 1.778 0 0 1 .232 1.08v6.576a3.584 3.584 0 0 1 -.1.96.717.717 0 0 1 -.328.448 1.707 1.707 0 0 1 -.68.16 2.2 2.2 0 0 0 -.08.688q1.2-.048 4.144-.048 2.177 0 3.424.032a14.03 14.03 0 0 1 .5-2.384 1.684 1.684 0 0 0 -.7-.384zm14.9-8.08q-.816 0-1.5-.048a4.552 4.552 0 0 0 .08.688.992.992 0 0 1 .672.208 1.192 1.192 0 0 1 .336.688 7.472 7.472 0 0 1 .1 1.376v5.3l-6.224-8.256a9.966 9.966 0 0 1 -1.072.048q-.7 0-1.184-.048a2.611 2.611 0 0 0 .08.688 1.81 1.81 0 0 1 .616.128 1.322 1.322 0 0 1 .424.368l.064.08v6.608a8 8 0 0 1 -.1 1.424 1.257 1.257 0 0 1 -.336.712.969.969 0 0 1 -.672.216 2.294 2.294 0 0 0 -.08.688q.609-.048 1.6-.048.864 0 1.584.048a2.261 2.261 0 0 0 -.08-.688.969.969 0 0 1 -.672-.216 1.257 1.257 0 0 1 -.336-.712 8 8 0 0 1 -.1-1.424v-5.548l6.608 8.624a2.006 2.006 0 0 0 .688-.1v-7.9a8.233 8.233 0 0 1 .088-1.368 1.347 1.347 0 0 1 .288-.7.751.751 0 0 1 .568-.208 2.57 2.57 0 0 0 .08-.688q-.656.048-1.52.048zm14.864-.048q-.88.048-4.112.048-3.185 0-4.08-.048a14.784 14.784 0 0 1 -.256 2.56 1.552 1.552 0 0 0 .768.144 5.26 5.26 0 0 1 .3-1.1 1.3 1.3 0 0 1 .568-.624 2.282 2.282 0 0 1 1.136-.232h.812v8.08a2.581 2.581 0 0 1 -.1.832.678.678 0 0 1 -.376.408 2.452 2.452 0 0 1 -.8.152 2.2 2.2 0 0 0 -.08.688q.9-.048 2.1-.048 1.072 0 2.1.048a2.2 2.2 0 0 0 -.08-.688 2.368 2.368 0 0 1 -.792-.152.655.655 0 0 1 -.36-.4 2.76 2.76 0 0 1 -.1-.84v-8.08h.848a1.689 1.689 0 0 1 1.344.5 2.276 2.276 0 0 1 .464 1.456 1.723 1.723 0 0 0 .8-.144q-.112-1.344-.112-1.984z" fill-rule="evenodd" transform="translate(-217.219 -737.562)"/></svg>