<svg height="14.938" viewBox="0 0 247.626 14.938" width="247.626" xmlns="http://www.w3.org/2000/svg"><path d="m257.248 554.375a1.122 1.122 0 0 1 -.608-.208 1.178 1.178 0 0 1 -.352-.6 6.863 6.863 0 0 1 -.208-1.224l-.576-5.872a3.76 3.76 0 0 1 -.016-.4 1.286 1.286 0 0 1 .28-.944 1.134 1.134 0 0 1 .824-.272 2.725 2.725 0 0 0 .08-.688q-.641.048-1.216.048-.7 0-1.248-.048l-3.488 8.848-4-8.848q-.624.048-1.216.048-.736 0-1.216-.048a2.4 2.4 0 0 0 .08.688 1.142 1.142 0 0 1 .832.256 1.219 1.219 0 0 1 .256.88 3.553 3.553 0 0 1 -.016.384l-.512 5.7a8.764 8.764 0 0 1 -.232 1.448 1.193 1.193 0 0 1 -.376.648 1.416 1.416 0 0 1 -.688.224 2.493 2.493 0 0 0 -.08.688q.656-.048 1.6-.048t1.712.048a2.493 2.493 0 0 0 -.08-.688 1.217 1.217 0 0 1 -.84-.328 1.564 1.564 0 0 1 -.248-1.016q0-.352.048-.832l.512-5.136 3.728 8.1a1.733 1.733 0 0 0 .656-.112l3.312-8 .576 5.488c.032.32.048.586.048.8a1.085 1.085 0 0 1 -.208.768 1.4 1.4 0 0 1 -.816.272 2.278 2.278 0 0 0 -.1.688q.816-.048 1.952-.048 1.184 0 1.92.048a2.568 2.568 0 0 0 -.08-.7zm15.248.016a.959.959 0 0 1 -.6-.352 6.209 6.209 0 0 1 -.632-1.184l-3.808-8.736a2.716 2.716 0 0 0 -.624.064l-3.312 8.5a6.974 6.974 0 0 1 -.624 1.312 1.014 1.014 0 0 1 -.656.416 1.761 1.761 0 0 0 -.112.672q.912-.048 1.328-.048.976 0 1.52.048a1.81 1.81 0 0 0 -.112-.688 1.21 1.21 0 0 1 -.632-.184.557.557 0 0 1 -.2-.472 3.2 3.2 0 0 1 .256-1.056l.432-1.1q1.68-.064 4.224-.064l.7 1.632a2.773 2.773 0 0 1 .24.784.333.333 0 0 1 -.184.32 1.934 1.934 0 0 1 -.632.144 1.6 1.6 0 0 0 -.112.688q.96-.048 1.808-.048.864 0 1.824.048a2.379 2.379 0 0 0 -.1-.688zm-7.488-3.6 1.1-2.864q.432-1.185.608-1.728.224.639.7 1.744l1.216 2.848h-3.632zm20.672-6.624q-.88.048-4.112.048-3.184 0-4.08-.048a14.784 14.784 0 0 1 -.256 2.56 1.552 1.552 0 0 0 .768.144 5.26 5.26 0 0 1 .3-1.1 1.3 1.3 0 0 1 .568-.624 2.282 2.282 0 0 1 1.136-.232h.816v8.085a2.581 2.581 0 0 1 -.1.832.678.678 0 0 1 -.376.408 2.452 2.452 0 0 1 -.8.152 2.2 2.2 0 0 0 -.08.688q.9-.048 2.1-.048 1.072 0 2.1.048a2.2 2.2 0 0 0 -.08-.688 2.368 2.368 0 0 1 -.792-.152.655.655 0 0 1 -.36-.4 2.76 2.76 0 0 1 -.1-.84v-8.08h.848a1.689 1.689 0 0 1 1.344.5 2.276 2.276 0 0 1 .464 1.456 1.723 1.723 0 0 0 .8-.144q-.113-1.344-.112-1.984zm12.608 8.128a5.074 5.074 0 0 1 -.552 1.168 1.816 1.816 0 0 1 -.872.624 5.01 5.01 0 0 1 -1.7.224h-.1a2.545 2.545 0 0 1 -.92-.128.721.721 0 0 1 -.424-.44 2.867 2.867 0 0 1 -.112-.92v-2.9h1.008a2.3 2.3 0 0 1 1.368.3 1.538 1.538 0 0 1 .44 1.128 2.94 2.94 0 0 0 .736.08q-.033-.545-.032-1.856 0-1.2.032-1.744a2.719 2.719 0 0 0 -.768.112 1.224 1.224 0 0 1 -.392 1.032 2.572 2.572 0 0 1 -1.384.264h-1.008v-4.384h1.492a2.751 2.751 0 0 1 1.976.568 2.287 2.287 0 0 1 .648 1.464 1.137 1.137 0 0 0 .72-.192 21.112 21.112 0 0 1 -.336-2.528q-1.584.048-4.5.048-1.745 0-2.688-.048a2.175 2.175 0 0 0 .08.688 1.174 1.174 0 0 1 .872.312 1.785 1.785 0 0 1 .232 1.08v6.576a3.584 3.584 0 0 1 -.1.96.721.721 0 0 1 -.328.448 1.716 1.716 0 0 1 -.68.16 2.167 2.167 0 0 0 -.08.688q1.2-.048 4.144-.048 2.175 0 3.424.032a13.933 13.933 0 0 1 .5-2.384 1.69 1.69 0 0 0 -.7-.384zm13.568.5q-.753-1.281-1.136-1.848a9.171 9.171 0 0 0 -.944-1.16 3.941 3.941 0 0 0 1.976-1.088 2.6 2.6 0 0 0 .712-1.824 2.426 2.426 0 0 0 -.88-1.944 3.952 3.952 0 0 0 -2.608-.744l-1.344.016q-.448.015-1.328.016-1.281 0-1.92-.032a2.293 2.293 0 0 0 .08.672 1.058 1.058 0 0 1 .872.3 1.867 1.867 0 0 1 .232 1.1v6.741a1.838 1.838 0 0 1 -.224 1.08 1.175 1.175 0 0 1 -.88.312 2.356 2.356 0 0 0 -.08.688q.72-.048 1.92-.048t1.9.048a2.294 2.294 0 0 0 -.08-.688 1.1 1.1 0 0 1 -.84-.312 1.89 1.89 0 0 1 -.216-1.08v-2.9q.384.032.624.032l.5-.016a11.283 11.283 0 0 1 1.08 1.32q.408.6.9 1.5l.192.352q.464.912 1.072 1.888a16.6 16.6 0 0 1 2.512-.144 2.747 2.747 0 0 0 .064-.688 2.9 2.9 0 0 1 -.936-.176 1.569 1.569 0 0 1 -.6-.448 7.113 7.113 0 0 1 -.624-.928zm-4.784-3.424v-4.352a5.693 5.693 0 0 1 1.184-.128 2.951 2.951 0 0 1 2.008.568 2.277 2.277 0 0 1 -.232 3.36 3.876 3.876 0 0 1 -2.256.6 5.7 5.7 0 0 1 -.7-.048zm13.28-3.12v6.749a1.789 1.789 0 0 1 -.232 1.08 1.182 1.182 0 0 1 -.872.312 2.167 2.167 0 0 0 -.08.688q.816-.048 1.936-.048.975 0 1.936.048a2.2 2.2 0 0 0 -.08-.688 1.178 1.178 0 0 1 -.872-.312 1.782 1.782 0 0 1 -.232-1.08v-6.752a1.778 1.778 0 0 1 .232-1.08 1.17 1.17 0 0 1 .872-.312 2.205 2.205 0 0 0 .08-.688q-.96.048-1.936.048-1.056 0-1.936-.048a2.175 2.175 0 0 0 .08.688 1.174 1.174 0 0 1 .872.312 1.785 1.785 0 0 1 .232 1.08zm18.192 8.144a.954.954 0 0 1 -.6-.352 6.151 6.151 0 0 1 -.632-1.184l-3.808-8.736a2.716 2.716 0 0 0 -.624.064l-3.312 8.5a6.974 6.974 0 0 1 -.624 1.312 1.014 1.014 0 0 1 -.656.416 1.761 1.761 0 0 0 -.112.672q.912-.048 1.328-.048.975 0 1.52.048a1.83 1.83 0 0 0 -.112-.688 1.21 1.21 0 0 1 -.632-.184.554.554 0 0 1 -.2-.472 3.2 3.2 0 0 1 .256-1.056l.432-1.1q1.68-.064 4.224-.064l.7 1.632a2.773 2.773 0 0 1 .24.784.334.334 0 0 1 -.184.32 1.941 1.941 0 0 1 -.632.144 1.6 1.6 0 0 0 -.112.688q.96-.048 1.808-.048.864 0 1.824.048a2.379 2.379 0 0 0 -.1-.688zm-7.488-3.6 1.1-2.864q.432-1.185.608-1.728.224.639.7 1.744l1.216 2.848h-3.632zm16.959 3.52h-.1a2.481 2.481 0 0 1 -.912-.128.73.73 0 0 1 -.416-.432 2.884 2.884 0 0 1 -.112-.928v-6.528a3 3 0 0 1 .1-.864.679.679 0 0 1 .328-.424 1.806 1.806 0 0 1 .68-.152 2.175 2.175 0 0 0 .08-.688q-.96.048-1.936.048-1.008 0-1.936-.048a2.205 2.205 0 0 0 .08.688 1.17 1.17 0 0 1 .872.312 1.778 1.778 0 0 1 .232 1.08v6.576a3.3 3.3 0 0 1 -.1.952.749.749 0 0 1 -.336.456 1.707 1.707 0 0 1 -.68.16 2.2 2.2 0 0 0 -.08.688q1.2-.048 4.144-.048 1.857 0 3.1.032a14.03 14.03 0 0 1 .5-2.384 1.684 1.684 0 0 0 -.7-.384 4.964 4.964 0 0 1 -.592 1.216 1.737 1.737 0 0 1 -.816.608 4.074 4.074 0 0 1 -1.392.192zm19.712-9.456a2.748 2.748 0 0 1 1.976.568 2.277 2.277 0 0 1 .648 1.464 1.137 1.137 0 0 0 .72-.192 21.542 21.542 0 0 1 -.336-2.528q-1.584.048-4.448.048-1.615 0-2.672-.048a2.205 2.205 0 0 0 .08.688 1.17 1.17 0 0 1 .872.312 1.778 1.778 0 0 1 .232 1.08v6.749a1.782 1.782 0 0 1 -.232 1.08 1.178 1.178 0 0 1 -.872.312 2.2 2.2 0 0 0 -.08.688q.624-.048 2.176-.048 1.281 0 2.016.048a2.167 2.167 0 0 0 -.08-.688 2.453 2.453 0 0 1 -.84-.168.871.871 0 0 1 -.44-.5 2.952 2.952 0 0 1 -.144-1.048v-2.432h1.1a2.3 2.3 0 0 1 1.368.3 1.53 1.53 0 0 1 .44 1.128 2.946 2.946 0 0 0 .736.08q-.032-.544-.032-1.856 0-1.2.032-1.744a2.719 2.719 0 0 0 -.768.112 1.218 1.218 0 0 1 -.392 1.032 2.569 2.569 0 0 1 -1.384.264h-1.1v-4.7h1.424zm16.176 7.936q-.752-1.281-1.136-1.848a9.171 9.171 0 0 0 -.944-1.16 3.937 3.937 0 0 0 1.977-1.087 2.591 2.591 0 0 0 .712-1.824 2.423 2.423 0 0 0 -.88-1.944 3.952 3.952 0 0 0 -2.608-.744l-1.344.016q-.448.015-1.328.016-1.279 0-1.92-.032a2.327 2.327 0 0 0 .08.672 1.057 1.057 0 0 1 .872.3 1.859 1.859 0 0 1 .232 1.1v6.74a1.838 1.838 0 0 1 -.224 1.08 1.173 1.173 0 0 1 -.88.312 2.391 2.391 0 0 0 -.08.688q.72-.048 1.92-.048 1.216 0 1.9.048a2.294 2.294 0 0 0 -.08-.688 1.1 1.1 0 0 1 -.84-.312 1.89 1.89 0 0 1 -.216-1.08v-2.9q.384.032.624.032l.5-.016a11.283 11.283 0 0 1 1.08 1.32q.408.6.9 1.5l.192.352q.463.912 1.072 1.888a16.6 16.6 0 0 1 2.512-.144 2.7 2.7 0 0 0 .064-.688 2.9 2.9 0 0 1 -.936-.176 1.584 1.584 0 0 1 -.6-.448 7.113 7.113 0 0 1 -.624-.928zm-4.784-3.424v-4.352a5.693 5.693 0 0 1 1.184-.128 2.949 2.949 0 0 1 2.008.568 2.277 2.277 0 0 1 -.232 3.36 3.876 3.876 0 0 1 -2.256.6 5.715 5.715 0 0 1 -.7-.048zm20.32 1.36v-3.84a6.961 6.961 0 0 1 .08-1.208 1.034 1.034 0 0 1 .28-.6 1.062 1.062 0 0 1 .584-.224 4.271 4.271 0 0 0 .08-.688q-.624.048-1.52.048-.96 0-1.5-.048a3.617 3.617 0 0 0 .08.688 1.362 1.362 0 0 1 .712.232.946.946 0 0 1 .312.584 6.775 6.775 0 0 1 .08 1.216v3.968a8.435 8.435 0 0 1 -.152 1.864 2.085 2.085 0 0 1 -.536 1 1.913 1.913 0 0 1 -.776.456 3 3 0 0 1 -.92.152 2.419 2.419 0 0 1 -2.1-.856 3.975 3.975 0 0 1 -.616-2.36v-4.864a3.351 3.351 0 0 1 .08-.872.564.564 0 0 1 .3-.368 2.313 2.313 0 0 1 .728-.152 2.611 2.611 0 0 0 .08-.688q-.72.048-1.856.048-1.216 0-1.856-.048a2.611 2.611 0 0 0 .08.688 1.631 1.631 0 0 1 .608.16.591.591 0 0 1 .264.384 3.614 3.614 0 0 1 .072.848v5.088a4.1 4.1 0 0 0 .888 2.9 4.041 4.041 0 0 0 3.032.944 3.506 3.506 0 0 0 2.592-.912 2.735 2.735 0 0 0 .72-1.312 9.888 9.888 0 0 0 .192-2.224zm7.6-4.48v6.749a1.789 1.789 0 0 1 -.232 1.08 1.182 1.182 0 0 1 -.872.312 2.167 2.167 0 0 0 -.08.688q.816-.048 1.936-.048.975 0 1.936.048a2.2 2.2 0 0 0 -.08-.688 1.178 1.178 0 0 1 -.872-.312 1.782 1.782 0 0 1 -.232-1.08v-6.752a1.778 1.778 0 0 1 .232-1.08 1.17 1.17 0 0 1 .872-.312 2.205 2.205 0 0 0 .08-.688q-.96.048-1.936.048-1.056 0-1.936-.048a2.175 2.175 0 0 0 .08.688 1.174 1.174 0 0 1 .872.312 1.785 1.785 0 0 1 .232 1.08zm16.272-2.08q-.88.048-4.112.048-3.185 0-4.08-.048a14.883 14.883 0 0 1 -.256 2.56 1.552 1.552 0 0 0 .768.144 5.26 5.26 0 0 1 .3-1.1 1.3 1.3 0 0 1 .568-.624 2.28 2.28 0 0 1 1.136-.232h.816v8.081a2.581 2.581 0 0 1 -.1.832.681.681 0 0 1 -.376.408 2.457 2.457 0 0 1 -.8.152 2.167 2.167 0 0 0 -.08.688q.9-.048 2.1-.048 1.071 0 2.1.048a2.2 2.2 0 0 0 -.08-.688 2.368 2.368 0 0 1 -.792-.152.655.655 0 0 1 -.36-.4 2.76 2.76 0 0 1 -.1-.84v-8.08h.837a1.689 1.689 0 0 1 1.344.5 2.281 2.281 0 0 1 .464 1.456 1.723 1.723 0 0 0 .8-.144q-.113-1.344-.112-1.984zm14.815 8.864v-6.784a1.739 1.739 0 0 1 .24-1.072 1.159 1.159 0 0 1 .864-.32 2.175 2.175 0 0 0 .08-.688q-.576.048-1.936.048-1.232 0-1.936-.048a2.205 2.205 0 0 0 .08.688 1.17 1.17 0 0 1 .872.312 1.778 1.778 0 0 1 .232 1.08v8.24a5.362 5.362 0 0 1 -.456 2.376 5.545 5.545 0 0 1 -1.416 1.736.557.557 0 0 0 .272.416 6.881 6.881 0 0 0 2.008-1.536 4.155 4.155 0 0 0 .88-1.808 13.043 13.043 0 0 0 .216-2.64zm14.8-2.3v-3.84a6.961 6.961 0 0 1 .08-1.208 1.04 1.04 0 0 1 .28-.6 1.065 1.065 0 0 1 .584-.224 4.158 4.158 0 0 0 .08-.688q-.624.048-1.52.048-.96 0-1.5-.048a3.617 3.617 0 0 0 .08.688 1.359 1.359 0 0 1 .712.232.946.946 0 0 1 .312.584 6.682 6.682 0 0 1 .08 1.216v3.968a8.374 8.374 0 0 1 -.152 1.864 2.085 2.085 0 0 1 -.536 1 1.906 1.906 0 0 1 -.776.456 3 3 0 0 1 -.92.152 2.419 2.419 0 0 1 -2.1-.856 3.983 3.983 0 0 1 -.616-2.36v-4.864a3.351 3.351 0 0 1 .08-.872.567.567 0 0 1 .3-.368 2.313 2.313 0 0 1 .728-.152 2.57 2.57 0 0 0 .08-.688q-.72.048-1.856.048-1.215 0-1.856-.048a2.611 2.611 0 0 0 .08.688 1.625 1.625 0 0 1 .608.16.591.591 0 0 1 .264.384 3.614 3.614 0 0 1 .072.848v5.088a4.1 4.1 0 0 0 .888 2.9 4.041 4.041 0 0 0 3.032.944 3.506 3.506 0 0 0 2.592-.912 2.735 2.735 0 0 0 .72-1.312 9.888 9.888 0 0 0 .192-2.224zm7.6-4.48v6.745a1.782 1.782 0 0 1 -.232 1.08 1.18 1.18 0 0 1 -.872.312 2.2 2.2 0 0 0 -.08.688q.816-.048 1.936-.048.976 0 1.936.048a2.2 2.2 0 0 0 -.08-.688 1.18 1.18 0 0 1 -.872-.312 1.782 1.782 0 0 1 -.232-1.08v-6.752a1.778 1.778 0 0 1 .232-1.08 1.172 1.172 0 0 1 .872-.312 2.205 2.205 0 0 0 .08-.688q-.96.048-1.936.048-1.056 0-1.936-.048a2.205 2.205 0 0 0 .08.688 1.172 1.172 0 0 1 .872.312 1.778 1.778 0 0 1 .232 1.08zm13.072 8.928a6.111 6.111 0 0 0 2.1-.336 7.213 7.213 0 0 0 1.9-1.088.761.761 0 0 0 -.1-.264.85.85 0 0 0 -.184-.232 6.552 6.552 0 0 1 -1.488.688 5.1 5.1 0 0 1 -1.552.256 3.647 3.647 0 0 1 -2.176-.664 4.168 4.168 0 0 1 -1.416-1.824 6.653 6.653 0 0 1 -.488-2.6 5.756 5.756 0 0 1 .4-2.176 3.425 3.425 0 0 1 3.392-2.208 2.346 2.346 0 0 1 1.744.6 3.33 3.33 0 0 1 .656 2.2 2.238 2.238 0 0 0 .848-.144 12.953 12.953 0 0 1 .176-2.48 8.993 8.993 0 0 0 -1.744-.632 7.692 7.692 0 0 0 -1.808-.2 5.712 5.712 0 0 0 -2.632.624 4.833 4.833 0 0 0 -1.968 1.856 5.683 5.683 0 0 0 -.744 2.992 6.4 6.4 0 0 0 .648 2.928 4.856 4.856 0 0 0 1.808 1.992 4.935 4.935 0 0 0 2.632.712zm16.9-2.88a5.033 5.033 0 0 1 -.552 1.168 1.811 1.811 0 0 1 -.872.624 5.01 5.01 0 0 1 -1.7.224h-.1a2.548 2.548 0 0 1 -.92-.128.724.724 0 0 1 -.424-.44 2.867 2.867 0 0 1 -.112-.92v-2.9h1.008a2.3 2.3 0 0 1 1.368.3 1.538 1.538 0 0 1 .44 1.128 2.94 2.94 0 0 0 .736.08q-.032-.545-.032-1.856 0-1.2.032-1.744a2.719 2.719 0 0 0 -.768.112 1.221 1.221 0 0 1 -.392 1.032 2.572 2.572 0 0 1 -1.384.264h-1.008v-4.384h1.488a2.749 2.749 0 0 1 1.976.568 2.277 2.277 0 0 1 .648 1.464 1.137 1.137 0 0 0 .72-.192 21.112 21.112 0 0 1 -.336-2.528q-1.584.048-4.5.048-1.745 0-2.688-.048a2.205 2.205 0 0 0 .08.688 1.174 1.174 0 0 1 .872.312 1.778 1.778 0 0 1 .232 1.08v6.576a3.584 3.584 0 0 1 -.1.96.717.717 0 0 1 -.328.448 1.712 1.712 0 0 1 -.68.16 2.2 2.2 0 0 0 -.08.688q1.2-.048 4.144-.048 2.175 0 3.424.032a13.933 13.933 0 0 1 .5-2.384 1.69 1.69 0 0 0 -.7-.384z" fill-rule="evenodd" transform="translate(-243.562 -544.062)"/></svg>