<svg height="11.626" viewBox="0 0 215.906 11.626" width="215.906" xmlns="http://www.w3.org/2000/svg"><path d="m289.76 574.391a.959.959 0 0 1 -.6-.352 6.209 6.209 0 0 1 -.632-1.184l-3.808-8.736a2.716 2.716 0 0 0 -.624.064l-3.312 8.5a6.974 6.974 0 0 1 -.624 1.312 1.014 1.014 0 0 1 -.656.416 1.761 1.761 0 0 0 -.112.672q.912-.048 1.328-.048.976 0 1.52.048a1.81 1.81 0 0 0 -.112-.688 1.21 1.21 0 0 1 -.632-.184.557.557 0 0 1 -.2-.472 3.2 3.2 0 0 1 .256-1.056l.432-1.1q1.68-.064 4.224-.064l.7 1.632a2.773 2.773 0 0 1 .24.784.333.333 0 0 1 -.184.32 1.934 1.934 0 0 1 -.632.144 1.6 1.6 0 0 0 -.112.688q.96-.048 1.808-.048.864 0 1.824.048a2.379 2.379 0 0 0 -.1-.688zm-7.488-3.6 1.1-2.864q.432-1.185.608-1.728.224.639.7 1.744l1.216 2.848h-3.632zm20.192 2q-.751-1.281-1.136-1.848a9.171 9.171 0 0 0 -.944-1.16 3.937 3.937 0 0 0 1.976-1.088 2.591 2.591 0 0 0 .712-1.824 2.423 2.423 0 0 0 -.88-1.944 3.952 3.952 0 0 0 -2.608-.744l-1.344.016q-.449.015-1.328.016-1.279 0-1.92-.032a2.327 2.327 0 0 0 .08.672 1.057 1.057 0 0 1 .872.3 1.859 1.859 0 0 1 .232 1.1v6.745a1.838 1.838 0 0 1 -.224 1.08 1.173 1.173 0 0 1 -.88.312 2.391 2.391 0 0 0 -.08.688q.72-.048 1.92-.048 1.217 0 1.9.048a2.294 2.294 0 0 0 -.08-.688 1.1 1.1 0 0 1 -.84-.312 1.89 1.89 0 0 1 -.216-1.08v-2.9q.384.032.624.032l.5-.016a11.283 11.283 0 0 1 1.08 1.32q.408.6.9 1.5l.192.352q.464.912 1.072 1.888a16.6 16.6 0 0 1 2.512-.144 2.7 2.7 0 0 0 .064-.688 2.9 2.9 0 0 1 -.936-.176 1.584 1.584 0 0 1 -.6-.448 7.113 7.113 0 0 1 -.624-.928zm-4.784-3.424v-4.352a5.693 5.693 0 0 1 1.184-.128 2.949 2.949 0 0 1 2.008.568 2.277 2.277 0 0 1 -.232 3.36 3.876 3.876 0 0 1 -2.256.6 5.715 5.715 0 0 1 -.7-.048zm13.28-3.12v6.753a1.789 1.789 0 0 1 -.232 1.08 1.182 1.182 0 0 1 -.872.312 2.167 2.167 0 0 0 -.08.688q.816-.048 1.936-.048.975 0 1.936.048a2.2 2.2 0 0 0 -.08-.688 1.178 1.178 0 0 1 -.872-.312 1.782 1.782 0 0 1 -.232-1.08v-6.752a1.778 1.778 0 0 1 .232-1.08 1.17 1.17 0 0 1 .872-.312 2.205 2.205 0 0 0 .08-.688q-.96.048-1.936.048-1.056 0-1.936-.048a2.175 2.175 0 0 0 .08.688 1.174 1.174 0 0 1 .872.312 1.785 1.785 0 0 1 .232 1.08zm12.464-2.064q-.624 0-.944.016l-.944.016q-1.5 0-2.24-.048a2.175 2.175 0 0 0 .08.688 1.174 1.174 0 0 1 .872.312 1.785 1.785 0 0 1 .232 1.08v6.576a3.341 3.341 0 0 1 -.1.952.756.756 0 0 1 -.336.456 1.716 1.716 0 0 1 -.68.16 2.167 2.167 0 0 0 -.08.688q1.2-.048 4.144-.048a7.958 7.958 0 0 0 4.152-1.152q1.927-1.152 1.928-4.528 0-2.976-1.72-4.072a7.973 7.973 0 0 0 -4.36-1.1zm0 10.128a2.474 2.474 0 0 1 -.912-.128.724.724 0 0 1 -.416-.432 2.856 2.856 0 0 1 -.112-.928v-7.888a3.081 3.081 0 0 1 .552-.1 5.58 5.58 0 0 1 2.968.456 3.9 3.9 0 0 1 1.7 1.576 5.229 5.229 0 0 1 .648 2.728 4.766 4.766 0 0 1 -1.176 3.64 4.634 4.634 0 0 1 -3.256 1.08zm21.248.08a.954.954 0 0 1 -.6-.352 6.151 6.151 0 0 1 -.632-1.184l-3.808-8.736a2.716 2.716 0 0 0 -.624.064l-3.312 8.5a6.974 6.974 0 0 1 -.624 1.312 1.014 1.014 0 0 1 -.656.416 1.761 1.761 0 0 0 -.112.672q.912-.048 1.328-.048.975 0 1.52.048a1.83 1.83 0 0 0 -.112-.688 1.21 1.21 0 0 1 -.632-.184.554.554 0 0 1 -.2-.472 3.2 3.2 0 0 1 .256-1.056l.432-1.1q1.68-.064 4.224-.064l.7 1.632a2.773 2.773 0 0 1 .24.784.334.334 0 0 1 -.184.32 1.941 1.941 0 0 1 -.632.144 1.6 1.6 0 0 0 -.112.688q.96-.048 1.808-.048.864 0 1.824.048a2.379 2.379 0 0 0 -.1-.688zm-7.488-3.6 1.1-2.864q.432-1.185.608-1.728.224.639.7 1.744l1.216 2.848h-3.632zm25.2 1.9v-1.76a8.287 8.287 0 0 0 -.144-1.752 2.036 2.036 0 0 0 -.528-1.016 2.291 2.291 0 0 0 -1.7-.608 5.355 5.355 0 0 0 -1.344.192 6.432 6.432 0 0 0 -1.376.528 6.413 6.413 0 0 1 .1 1.2c0 .256-.006.437-.016.544a1.509 1.509 0 0 0 .368.08 3.825 3.825 0 0 0 .464.032 2.844 2.844 0 0 1 .36-1.264 1.11 1.11 0 0 1 1.048-.592 1.213 1.213 0 0 1 .992.48 1.343 1.343 0 0 1 .272.632 9.549 9.549 0 0 1 .064 1.352 14.081 14.081 0 0 0 -1.872.384 4.159 4.159 0 0 0 -1.536.808 1.859 1.859 0 0 0 -.688 1.512 1.536 1.536 0 0 0 .536 1.248 2.322 2.322 0 0 0 1.528.448 2.5 2.5 0 0 0 1.7-.544 2.085 2.085 0 0 0 .56-.784 3.948 3.948 0 0 0 -.016.416 1.672 1.672 0 0 0 .1.648.543.543 0 0 0 .288.3 4.346 4.346 0 0 1 .856-.328 4.689 4.689 0 0 1 .888-.168 2.282 2.282 0 0 0 .1-.736 1.69 1.69 0 0 1 -.64-.144.569.569 0 0 1 -.28-.36 2.868 2.868 0 0 1 -.072-.744zm-1.44-.688a2.972 2.972 0 0 1 -.24 1.264 1.783 1.783 0 0 1 -.6.752 1.324 1.324 0 0 1 -.744.24.9.9 0 0 1 -.688-.288 1.189 1.189 0 0 1 -.272-.848 1.317 1.317 0 0 1 .376-1 1.994 1.994 0 0 1 .888-.5 9.808 9.808 0 0 1 1.28-.232v.608zm15.807 2.384a.847.847 0 0 1 -.72-.3 1.923 1.923 0 0 1 -.224-1.1v-2.752a2.67 2.67 0 0 0 -.64-1.984 2.261 2.261 0 0 0 -1.648-.624 2.737 2.737 0 0 0 -1.384.352 2.88 2.88 0 0 0 -.936.8 1.443 1.443 0 0 0 -.152.248 1.285 1.285 0 0 1 -.088.168 3.742 3.742 0 0 0 .112-.944.636.636 0 0 0 -.352-.7 4.712 4.712 0 0 1 -1.008.352 6.585 6.585 0 0 1 -1.136.192 1.079 1.079 0 0 0 -.144.592 2.022 2.022 0 0 1 .768.136.63.63 0 0 1 .344.352 1.878 1.878 0 0 1 .088.648v3.177a1.816 1.816 0 0 1 -.24 1.1 1.063 1.063 0 0 1 -.864.3 2.2 2.2 0 0 0 -.08.688q.688-.048 1.9-.048.561 0 1.9.048a2.261 2.261 0 0 0 -.08-.688 1.063 1.063 0 0 1 -.864-.3 1.816 1.816 0 0 1 -.24-1.1v-1.712a3.825 3.825 0 0 1 .264-1.52 1.925 1.925 0 0 1 .68-.88 1.555 1.555 0 0 1 .864-.272 1.377 1.377 0 0 1 1.1.448 2.276 2.276 0 0 1 .392 1.5v2.436a1.729 1.729 0 0 1 -.256 1.088 1.053 1.053 0 0 1 -.848.3 2.2 2.2 0 0 0 -.08.688 2.53 2.53 0 0 0 .32-.016q.929-.033 1.584-.032 1.056 0 1.744.048a2.261 2.261 0 0 0 -.08-.688zm11.888-1.536v-8.651a.58.58 0 0 0 -.352-.64 3.207 3.207 0 0 1 -1.008.368 5.3 5.3 0 0 1 -1.136.176 1.079 1.079 0 0 0 -.144.592 1.942 1.942 0 0 1 .784.12.6.6 0 0 1 .336.36 2.155 2.155 0 0 1 .08.656v1.952a4.164 4.164 0 0 0 -1.328-.224 3.978 3.978 0 0 0 -2.08.544 3.732 3.732 0 0 0 -1.408 1.472 4.269 4.269 0 0 0 -.5 2.048 3.945 3.945 0 0 0 .776 2.68 2.812 2.812 0 0 0 2.216.872 2.47 2.47 0 0 0 1.336-.376 2.524 2.524 0 0 0 .856-.808q.224-.369.368-.672c-.011.053-.035.176-.072.368a2.953 2.953 0 0 0 -.056.56 1.522 1.522 0 0 0 .1.664.647.647 0 0 0 .3.264 3.836 3.836 0 0 1 .88-.328 5.48 5.48 0 0 1 .944-.168 2.282 2.282 0 0 0 .1-.736 1 1 0 0 1 -.808-.24 1.443 1.443 0 0 1 -.184-.848zm-3.376 1.312a1.428 1.428 0 0 1 -.808-.28 2.169 2.169 0 0 1 -.7-.9 3.733 3.733 0 0 1 -.288-1.576 4.048 4.048 0 0 1 .368-1.88 2.181 2.181 0 0 1 .9-.968 2.28 2.28 0 0 1 1.056-.272 1.919 1.919 0 0 1 .776.144 2.379 2.379 0 0 1 .632.416v2.256a3.817 3.817 0 0 1 -.568 2.3 1.675 1.675 0 0 1 -1.368.752zm17.968-7.92v6.757a1.789 1.789 0 0 1 -.232 1.08 1.182 1.182 0 0 1 -.872.312 2.167 2.167 0 0 0 -.08.688q.816-.048 1.936-.048.975 0 1.936.048a2.2 2.2 0 0 0 -.08-.688 1.178 1.178 0 0 1 -.872-.312 1.782 1.782 0 0 1 -.232-1.08v-6.752a1.778 1.778 0 0 1 .232-1.08 1.17 1.17 0 0 1 .872-.312 2.205 2.205 0 0 0 .08-.688q-.96.048-1.936.048-1.056 0-1.936-.048a2.175 2.175 0 0 0 .08.688 1.174 1.174 0 0 1 .872.312 1.785 1.785 0 0 1 .232 1.08zm16.272-2.08q-.88.048-4.112.048-3.185 0-4.08-.048a14.883 14.883 0 0 1 -.256 2.56 1.552 1.552 0 0 0 .768.144 5.26 5.26 0 0 1 .3-1.1 1.3 1.3 0 0 1 .568-.624 2.28 2.28 0 0 1 1.136-.232h.816v8.089a2.581 2.581 0 0 1 -.1.832.681.681 0 0 1 -.376.408 2.457 2.457 0 0 1 -.8.152 2.167 2.167 0 0 0 -.08.688q.9-.048 2.1-.048 1.071 0 2.1.048a2.2 2.2 0 0 0 -.08-.688 2.368 2.368 0 0 1 -.792-.152.655.655 0 0 1 -.36-.4 2.76 2.76 0 0 1 -.1-.84v-8.08h.848a1.689 1.689 0 0 1 1.344.5 2.281 2.281 0 0 1 .464 1.456 1.723 1.723 0 0 0 .8-.144q-.113-1.344-.112-1.984zm10.197 11.012a5.115 5.115 0 0 0 4.616-2.744 6.337 6.337 0 0 0 0-5.712 4.894 4.894 0 0 0 -1.888-1.952 5.367 5.367 0 0 0 -2.728-.7 5.216 5.216 0 0 0 -2.68.7 5.048 5.048 0 0 0 -1.9 1.96 5.791 5.791 0 0 0 -.7 2.856 6.074 6.074 0 0 0 .664 2.856 4.993 4.993 0 0 0 1.864 2 5.2 5.2 0 0 0 2.752.728zm.32-.784a3.247 3.247 0 0 1 -2.112-.728 4.581 4.581 0 0 1 -1.368-1.928 6.969 6.969 0 0 1 -.472-2.576 5.608 5.608 0 0 1 .424-2.256 3.57 3.57 0 0 1 1.176-1.52 2.818 2.818 0 0 1 1.7-.544 3.292 3.292 0 0 1 2.032.688 4.6 4.6 0 0 1 1.432 1.872 6.423 6.423 0 0 1 .52 2.608 5.978 5.978 0 0 1 -.4 2.232 3.613 3.613 0 0 1 -1.16 1.576 2.846 2.846 0 0 1 -1.768.576zm19.071-10.176q-.816 0-1.5-.048a4.552 4.552 0 0 0 .08.688.992.992 0 0 1 .672.208 1.192 1.192 0 0 1 .336.688 7.472 7.472 0 0 1 .1 1.376v5.3l-6.224-8.256a9.966 9.966 0 0 1 -1.072.048q-.7 0-1.184-.048a2.611 2.611 0 0 0 .08.688 1.81 1.81 0 0 1 .616.128 1.322 1.322 0 0 1 .424.368l.064.08v6.608a8 8 0 0 1 -.1 1.424 1.257 1.257 0 0 1 -.336.712.969.969 0 0 1 -.672.216 2.294 2.294 0 0 0 -.08.688q.609-.048 1.6-.048.864 0 1.584.048a2.261 2.261 0 0 0 -.08-.688.969.969 0 0 1 -.672-.216 1.257 1.257 0 0 1 -.336-.712 8 8 0 0 1 -.1-1.424v-5.543l6.608 8.624a2.006 2.006 0 0 0 .688-.1v-7.9a8.233 8.233 0 0 1 .088-1.368 1.347 1.347 0 0 1 .288-.7.751.751 0 0 1 .568-.208 2.57 2.57 0 0 0 .08-.688q-.656.048-1.52.048zm11.856 10.96a5.115 5.115 0 0 0 4.616-2.744 6.337 6.337 0 0 0 0-5.712 4.888 4.888 0 0 0 -1.888-1.952 5.365 5.365 0 0 0 -2.728-.7 5.219 5.219 0 0 0 -2.68.7 5.055 5.055 0 0 0 -1.9 1.96 5.791 5.791 0 0 0 -.7 2.856 6.074 6.074 0 0 0 .664 2.856 5 5 0 0 0 1.864 2 5.2 5.2 0 0 0 2.752.728zm.32-.784a3.247 3.247 0 0 1 -2.112-.728 4.6 4.6 0 0 1 -1.368-1.928 6.969 6.969 0 0 1 -.472-2.576 5.608 5.608 0 0 1 .424-2.256 3.586 3.586 0 0 1 1.176-1.52 2.821 2.821 0 0 1 1.7-.544 3.29 3.29 0 0 1 2.032.688 4.6 4.6 0 0 1 1.432 1.872 6.406 6.406 0 0 1 .52 2.608 5.958 5.958 0 0 1 -.4 2.232 3.605 3.605 0 0 1 -1.16 1.576 2.846 2.846 0 0 1 -1.768.576zm17.632-2.1a4.992 4.992 0 0 1 -.552 1.168 1.811 1.811 0 0 1 -.872.624 5.01 5.01 0 0 1 -1.7.224h-.1a2.548 2.548 0 0 1 -.92-.128.724.724 0 0 1 -.424-.44 2.867 2.867 0 0 1 -.112-.92v-2.9h1.008a2.3 2.3 0 0 1 1.368.3 1.534 1.534 0 0 1 .44 1.128 2.946 2.946 0 0 0 .736.08q-.032-.545-.032-1.856 0-1.2.032-1.744a2.719 2.719 0 0 0 -.768.112 1.221 1.221 0 0 1 -.392 1.032 2.572 2.572 0 0 1 -1.384.264h-1.008v-4.384h1.488a2.749 2.749 0 0 1 1.976.568 2.277 2.277 0 0 1 .648 1.464 1.137 1.137 0 0 0 .72-.192 21.542 21.542 0 0 1 -.336-2.528q-1.584.048-4.5.048-1.744 0-2.688-.048a2.205 2.205 0 0 0 .08.688 1.172 1.172 0 0 1 .872.312 1.778 1.778 0 0 1 .232 1.08v6.576a3.584 3.584 0 0 1 -.1.96.717.717 0 0 1 -.328.448 1.712 1.712 0 0 1 -.68.16 2.2 2.2 0 0 0 -.08.688q1.2-.048 4.144-.048 2.177 0 3.424.032a13.933 13.933 0 0 1 .5-2.384 1.69 1.69 0 0 0 -.7-.384zm14.9-8.08q-.816 0-1.5-.048a4.423 4.423 0 0 0 .08.688.992.992 0 0 1 .672.208 1.192 1.192 0 0 1 .336.688 7.472 7.472 0 0 1 .1 1.376v5.3l-6.224-8.256a9.979 9.979 0 0 1 -1.072.048q-.7 0-1.184-.048a2.57 2.57 0 0 0 .08.688 1.822 1.822 0 0 1 .616.128 1.343 1.343 0 0 1 .424.368l.064.08v6.608a8 8 0 0 1 -.1 1.424 1.257 1.257 0 0 1 -.336.712.969.969 0 0 1 -.672.216 2.261 2.261 0 0 0 -.08.688q.607-.048 1.6-.048.864 0 1.584.048a2.294 2.294 0 0 0 -.08-.688.969.969 0 0 1 -.672-.216 1.257 1.257 0 0 1 -.336-.712 8 8 0 0 1 -.1-1.424v-5.539l6.608 8.624a2.01 2.01 0 0 0 .688-.1v-7.9a8.125 8.125 0 0 1 .088-1.368 1.331 1.331 0 0 1 .288-.7.748.748 0 0 1 .568-.208 2.611 2.611 0 0 0 .08-.688q-.657.048-1.52.048z" fill-rule="evenodd" transform="translate(-279.406 -563.562)"/></svg>