<svg height="11.126" viewBox="0 0 258.094 11.126" width="258.094" xmlns="http://www.w3.org/2000/svg"><path d="m245 544.855a2.749 2.749 0 0 1 1.976.568 2.277 2.277 0 0 1 .648 1.464 1.137 1.137 0 0 0 .72-.192 21.542 21.542 0 0 1 -.336-2.528q-1.584.048-4.448.048-1.615 0-2.672-.048a2.205 2.205 0 0 0 .08.688 1.172 1.172 0 0 1 .872.312 1.778 1.778 0 0 1 .232 1.08v6.753a1.782 1.782 0 0 1 -.232 1.08 1.18 1.18 0 0 1 -.872.312 2.2 2.2 0 0 0 -.08.688q.624-.048 2.176-.048 1.28 0 2.016.048a2.2 2.2 0 0 0 -.08-.688 2.442 2.442 0 0 1 -.84-.168.871.871 0 0 1 -.44-.5 2.952 2.952 0 0 1 -.144-1.048v-2.432h1.1a2.3 2.3 0 0 1 1.368.3 1.534 1.534 0 0 1 .44 1.128 2.946 2.946 0 0 0 .736.08q-.031-.544-.032-1.856 0-1.2.032-1.744a2.719 2.719 0 0 0 -.768.112 1.221 1.221 0 0 1 -.392 1.032 2.572 2.572 0 0 1 -1.384.264h-1.1v-4.7h1.424zm16.176 7.936q-.753-1.281-1.136-1.848a9.171 9.171 0 0 0 -.944-1.16 3.941 3.941 0 0 0 1.976-1.088 2.6 2.6 0 0 0 .712-1.824 2.426 2.426 0 0 0 -.88-1.944 3.952 3.952 0 0 0 -2.608-.744l-1.344.016q-.448.015-1.328.016-1.281 0-1.92-.032a2.293 2.293 0 0 0 .08.672 1.058 1.058 0 0 1 .872.3 1.867 1.867 0 0 1 .232 1.1v6.745a1.838 1.838 0 0 1 -.224 1.08 1.175 1.175 0 0 1 -.88.312 2.356 2.356 0 0 0 -.08.688q.72-.048 1.92-.048 1.215 0 1.9.048a2.294 2.294 0 0 0 -.08-.688 1.1 1.1 0 0 1 -.84-.312 1.89 1.89 0 0 1 -.216-1.08v-2.9q.384.032.624.032l.5-.016a11.283 11.283 0 0 1 1.08 1.32q.408.6.9 1.5l.192.352q.464.912 1.072 1.888a16.6 16.6 0 0 1 2.512-.144 2.747 2.747 0 0 0 .064-.688 2.9 2.9 0 0 1 -.936-.176 1.569 1.569 0 0 1 -.6-.448 7.113 7.113 0 0 1 -.624-.928zm-4.784-3.424v-4.352a5.693 5.693 0 0 1 1.184-.128 2.951 2.951 0 0 1 2.008.568 2.277 2.277 0 0 1 -.232 3.36 3.876 3.876 0 0 1 -2.256.6 5.7 5.7 0 0 1 -.7-.048zm20.32 1.36v-3.84a6.862 6.862 0 0 1 .08-1.208 1.028 1.028 0 0 1 .28-.6 1.062 1.062 0 0 1 .584-.224 4.271 4.271 0 0 0 .08-.688q-.624.048-1.52.048-.96 0-1.5-.048a3.537 3.537 0 0 0 .08.688 1.362 1.362 0 0 1 .712.232.956.956 0 0 1 .312.584 6.775 6.775 0 0 1 .08 1.216v3.968a8.435 8.435 0 0 1 -.152 1.864 2.094 2.094 0 0 1 -.536 1 1.92 1.92 0 0 1 -.776.456 3.008 3.008 0 0 1 -.92.152 2.418 2.418 0 0 1 -2.1-.856 3.975 3.975 0 0 1 -.616-2.36v-4.864a3.307 3.307 0 0 1 .08-.872.564.564 0 0 1 .3-.368 2.306 2.306 0 0 1 .728-.152 2.611 2.611 0 0 0 .08-.688q-.72.048-1.856.048-1.216 0-1.856-.048a2.57 2.57 0 0 0 .08.688 1.631 1.631 0 0 1 .608.16.591.591 0 0 1 .264.384 3.614 3.614 0 0 1 .072.848v5.088a4.1 4.1 0 0 0 .888 2.9 4.039 4.039 0 0 0 3.032.944 3.506 3.506 0 0 0 2.592-.912 2.735 2.735 0 0 0 .72-1.312 9.888 9.888 0 0 0 .192-2.224zm7.6-4.48v6.753a1.789 1.789 0 0 1 -.232 1.08 1.182 1.182 0 0 1 -.872.312 2.167 2.167 0 0 0 -.08.688q.816-.048 1.936-.048.975 0 1.936.048a2.2 2.2 0 0 0 -.08-.688 1.178 1.178 0 0 1 -.872-.312 1.782 1.782 0 0 1 -.232-1.08v-6.752a1.778 1.778 0 0 1 .232-1.08 1.17 1.17 0 0 1 .872-.312 2.205 2.205 0 0 0 .08-.688q-.96.048-1.936.048-1.056 0-1.936-.048a2.175 2.175 0 0 0 .08.688 1.174 1.174 0 0 1 .872.312 1.785 1.785 0 0 1 .232 1.08zm16.271-2.08q-.879.048-4.112.048-3.183 0-4.08-.048a14.784 14.784 0 0 1 -.256 2.56 1.552 1.552 0 0 0 .768.144 5.323 5.323 0 0 1 .3-1.1 1.306 1.306 0 0 1 .568-.624 2.285 2.285 0 0 1 1.136-.232h.816v8.085a2.553 2.553 0 0 1 -.1.832.675.675 0 0 1 -.376.408 2.452 2.452 0 0 1 -.8.152 2.2 2.2 0 0 0 -.08.688q.9-.048 2.1-.048 1.073 0 2.1.048a2.167 2.167 0 0 0 -.08-.688 2.368 2.368 0 0 1 -.792-.152.655.655 0 0 1 -.36-.4 2.76 2.76 0 0 1 -.1-.84v-8.08h.848a1.689 1.689 0 0 1 1.344.5 2.276 2.276 0 0 1 .464 1.456 1.721 1.721 0 0 0 .8-.144q-.111-1.344-.112-1.984zm22.16 10.224a.959.959 0 0 1 -.6-.352 6.209 6.209 0 0 1 -.632-1.184l-3.808-8.736a2.716 2.716 0 0 0 -.624.064l-3.312 8.5a6.974 6.974 0 0 1 -.624 1.312 1.014 1.014 0 0 1 -.656.416 1.761 1.761 0 0 0 -.112.672q.912-.048 1.328-.048.976 0 1.52.048a1.81 1.81 0 0 0 -.112-.688 1.21 1.21 0 0 1 -.632-.184.557.557 0 0 1 -.2-.472 3.2 3.2 0 0 1 .256-1.056l.432-1.1q1.68-.064 4.224-.064l.7 1.632a2.773 2.773 0 0 1 .24.784.333.333 0 0 1 -.184.32 1.934 1.934 0 0 1 -.632.144 1.6 1.6 0 0 0 -.112.688q.96-.048 1.808-.048.864 0 1.824.048a2.379 2.379 0 0 0 -.1-.688zm-7.488-3.6 1.1-2.864q.432-1.185.608-1.728.224.639.7 1.744l1.216 2.848h-3.632zm21.52-6.576q-.816 0-1.5-.048a4.552 4.552 0 0 0 .08.688.992.992 0 0 1 .672.208 1.192 1.192 0 0 1 .336.688 7.472 7.472 0 0 1 .1 1.376v5.3l-6.224-8.256a9.966 9.966 0 0 1 -1.072.048q-.7 0-1.184-.048a2.611 2.611 0 0 0 .08.688 1.816 1.816 0 0 1 .616.128 1.332 1.332 0 0 1 .424.368l.064.08v6.608a8 8 0 0 1 -.1 1.424 1.257 1.257 0 0 1 -.336.712.969.969 0 0 1 -.672.216 2.294 2.294 0 0 0 -.08.688q.607-.048 1.6-.048.864 0 1.584.048a2.294 2.294 0 0 0 -.08-.688.969.969 0 0 1 -.672-.216 1.257 1.257 0 0 1 -.336-.712 8 8 0 0 1 -.1-1.424v-5.543l6.608 8.624a2.01 2.01 0 0 0 .688-.1v-7.9a8.125 8.125 0 0 1 .088-1.368 1.347 1.347 0 0 1 .288-.7.75.75 0 0 1 .568-.208 2.611 2.611 0 0 0 .08-.688q-.656.048-1.52.048zm11.056-.032q-.624 0-.944.016l-.944.016q-1.5 0-2.24-.048a2.175 2.175 0 0 0 .08.688 1.174 1.174 0 0 1 .872.312 1.785 1.785 0 0 1 .232 1.08v6.576a3.341 3.341 0 0 1 -.1.952.756.756 0 0 1 -.336.456 1.716 1.716 0 0 1 -.68.16 2.167 2.167 0 0 0 -.08.688q1.2-.048 4.144-.048a7.958 7.958 0 0 0 4.152-1.152q1.927-1.152 1.928-4.528 0-2.976-1.72-4.072a7.973 7.973 0 0 0 -4.36-1.1zm0 10.128a2.474 2.474 0 0 1 -.912-.128.724.724 0 0 1 -.416-.432 2.856 2.856 0 0 1 -.112-.928v-7.888a3.081 3.081 0 0 1 .552-.1 5.58 5.58 0 0 1 2.968.456 3.9 3.9 0 0 1 1.7 1.576 5.229 5.229 0 0 1 .648 2.728 4.766 4.766 0 0 1 -1.176 3.64 4.634 4.634 0 0 1 -3.256 1.08zm26.464-10.1q-.657 0-1.36-.048a2.68 2.68 0 0 0 .08.688 1.122 1.122 0 0 1 .672.28.855.855 0 0 1 .208.616 3.359 3.359 0 0 1 -.224 1.056q-.993 2.784-2.384 5.952-1.3-3.569-2.384-6.144a3.505 3.505 0 0 1 -.368-1.184.435.435 0 0 1 .232-.424 2.073 2.073 0 0 1 .776-.152 3.278 3.278 0 0 0 .08-.688q-.912.048-1.936.048-1.312 0-1.936-.048a2.8 2.8 0 0 0 .08.688.924.924 0 0 1 .472.16 1.393 1.393 0 0 1 .344.472q.175.344.544 1.208 1.455 3.423 3.312 8.432a2.785 2.785 0 0 0 .624-.064q1.76-4.257 3.344-8.32a7.678 7.678 0 0 1 .632-1.344 1.2 1.2 0 0 1 .744-.544 2.725 2.725 0 0 0 .08-.688q-.688.048-1.632.048zm14.128 8.08a5.074 5.074 0 0 1 -.552 1.168 1.816 1.816 0 0 1 -.872.624 5.01 5.01 0 0 1 -1.7.224h-.1a2.545 2.545 0 0 1 -.92-.128.721.721 0 0 1 -.424-.44 2.867 2.867 0 0 1 -.112-.92v-2.9h1.008a2.3 2.3 0 0 1 1.368.3 1.538 1.538 0 0 1 .44 1.128 2.94 2.94 0 0 0 .736.08q-.033-.545-.032-1.856 0-1.2.032-1.744a2.719 2.719 0 0 0 -.768.112 1.224 1.224 0 0 1 -.392 1.032 2.572 2.572 0 0 1 -1.384.264h-1.008v-4.384h1.488a2.751 2.751 0 0 1 1.976.568 2.287 2.287 0 0 1 .648 1.464 1.137 1.137 0 0 0 .72-.192 21.112 21.112 0 0 1 -.336-2.528q-1.584.048-4.5.048-1.744 0-2.688-.048a2.175 2.175 0 0 0 .08.688 1.174 1.174 0 0 1 .872.312 1.785 1.785 0 0 1 .232 1.08v6.576a3.584 3.584 0 0 1 -.1.96.721.721 0 0 1 -.328.448 1.716 1.716 0 0 1 -.68.16 2.167 2.167 0 0 0 -.08.688q1.2-.048 4.144-.048 2.175 0 3.424.032a13.933 13.933 0 0 1 .5-2.384 1.69 1.69 0 0 0 -.7-.384zm11.024 2.88a8.172 8.172 0 0 0 2.376-.328 5.958 5.958 0 0 0 1.816-.872 1.374 1.374 0 0 1 -.168-.488 4.249 4.249 0 0 1 -.04-.632v-.72a6.818 6.818 0 0 1 .056-1.056.64.64 0 0 1 .2-.424.942.942 0 0 1 .5-.12 2.131 2.131 0 0 0 .1-.72q-.672.031-1.872.032-1.344 0-1.952-.048a2.11 2.11 0 0 0 .1.736 3.342 3.342 0 0 1 .928.112.563.563 0 0 1 .36.408 4.559 4.559 0 0 1 .088 1.08v.8a2.042 2.042 0 0 1 -.12.824.789.789 0 0 1 -.424.376 3.49 3.49 0 0 1 -.736.2 6 6 0 0 1 -.88.056 3.315 3.315 0 0 1 -2.136-.7 4.215 4.215 0 0 1 -1.312-1.888 7.683 7.683 0 0 1 -.44-2.68 5.347 5.347 0 0 1 .44-2.184 3.7 3.7 0 0 1 1.336-1.608 3.835 3.835 0 0 1 2.208-.608 2.934 2.934 0 0 1 1.944.584 2.8 2.8 0 0 1 .744 2.136 2.4 2.4 0 0 0 .848-.144 13.653 13.653 0 0 1 .176-2.48 7.374 7.374 0 0 0 -1.728-.552 10.635 10.635 0 0 0 -2.112-.2 6.077 6.077 0 0 0 -2.712.624 5.039 5.039 0 0 0 -2.056 1.848 5.323 5.323 0 0 0 -.784 2.936 6.532 6.532 0 0 0 .656 2.992 4.759 4.759 0 0 0 1.848 2 5.325 5.325 0 0 0 2.76.7zm17.967-2.88a4.992 4.992 0 0 1 -.552 1.168 1.806 1.806 0 0 1 -.872.624 5.006 5.006 0 0 1 -1.7.224h-.1a2.548 2.548 0 0 1 -.92-.128.724.724 0 0 1 -.424-.44 2.9 2.9 0 0 1 -.112-.92v-2.9h1.008a2.3 2.3 0 0 1 1.368.3 1.53 1.53 0 0 1 .44 1.128 2.946 2.946 0 0 0 .736.08q-.031-.545-.032-1.856 0-1.2.032-1.744a2.719 2.719 0 0 0 -.768.112 1.218 1.218 0 0 1 -.392 1.032 2.569 2.569 0 0 1 -1.384.264h-1.008v-4.384h1.488a2.748 2.748 0 0 1 1.976.568 2.277 2.277 0 0 1 .648 1.464 1.137 1.137 0 0 0 .72-.192 21.542 21.542 0 0 1 -.336-2.528q-1.584.048-4.5.048-1.743 0-2.688-.048a2.205 2.205 0 0 0 .08.688 1.17 1.17 0 0 1 .872.312 1.778 1.778 0 0 1 .232 1.08v6.576a3.584 3.584 0 0 1 -.1.96.717.717 0 0 1 -.328.448 1.707 1.707 0 0 1 -.68.16 2.2 2.2 0 0 0 -.08.688q1.2-.048 4.144-.048 2.177 0 3.424.032a14.03 14.03 0 0 1 .5-2.384 1.684 1.684 0 0 0 -.7-.384zm14.048-8.128q-.879.048-4.112.048-3.183 0-4.08-.048a14.784 14.784 0 0 1 -.256 2.56 1.552 1.552 0 0 0 .768.144 5.323 5.323 0 0 1 .3-1.1 1.306 1.306 0 0 1 .568-.624 2.285 2.285 0 0 1 1.136-.232h.814v8.089a2.553 2.553 0 0 1 -.1.832.675.675 0 0 1 -.376.408 2.452 2.452 0 0 1 -.8.152 2.2 2.2 0 0 0 -.08.688q.9-.048 2.1-.048 1.072 0 2.1.048a2.167 2.167 0 0 0 -.08-.688 2.368 2.368 0 0 1 -.792-.152.655.655 0 0 1 -.36-.4 2.76 2.76 0 0 1 -.1-.84v-8.08h.848a1.689 1.689 0 0 1 1.344.5 2.276 2.276 0 0 1 .464 1.456 1.721 1.721 0 0 0 .8-.144q-.111-1.344-.112-1.984zm15.12 10.224a.959.959 0 0 1 -.6-.352 6.268 6.268 0 0 1 -.632-1.184l-3.808-8.736a2.728 2.728 0 0 0 -.624.064l-3.312 8.5a6.974 6.974 0 0 1 -.624 1.312 1.011 1.011 0 0 1 -.656.416 1.781 1.781 0 0 0 -.112.672q.912-.048 1.328-.048.977 0 1.52.048a1.81 1.81 0 0 0 -.112-.688 1.213 1.213 0 0 1 -.632-.184.557.557 0 0 1 -.2-.472 3.224 3.224 0 0 1 .256-1.056l.432-1.1q1.68-.064 4.224-.064l.7 1.632a2.773 2.773 0 0 1 .24.784.333.333 0 0 1 -.184.32 1.927 1.927 0 0 1 -.632.144 1.616 1.616 0 0 0 -.112.688q.96-.048 1.808-.048.864 0 1.824.048a2.379 2.379 0 0 0 -.1-.688zm-7.488-3.6 1.1-2.864q.432-1.185.608-1.728.225.639.7 1.744l1.216 2.848h-3.632zm17.776-1.632a2.7 2.7 0 0 0 1.688-.88 2.576 2.576 0 0 0 .632-1.76 1.908 1.908 0 0 0 -.92-1.816 5.059 5.059 0 0 0 -2.488-.52q-.751 0-1.136.016l-1.152.016q-1.025 0-1.664-.048a2.205 2.205 0 0 0 .08.688 1.172 1.172 0 0 1 .872.312 1.778 1.778 0 0 1 .232 1.08v6.576a3.341 3.341 0 0 1 -.1.952.749.749 0 0 1 -.336.456 1.712 1.712 0 0 1 -.68.16 2.2 2.2 0 0 0 -.08.688q1.2-.048 4.352-.048a4.158 4.158 0 0 0 2.888-.872 2.948 2.948 0 0 0 .952-2.28q0-2.544-3.136-2.72zm.688-2.16q0 2.031-2.544 2.032h-.5v-4.064a2.542 2.542 0 0 1 .656-.08 2.85 2.85 0 0 1 1.672.5 1.828 1.828 0 0 1 .712 1.616zm-1.552 7.344a2.95 2.95 0 0 1 -.944-.112.7.7 0 0 1 -.424-.424 2.951 2.951 0 0 1 -.12-.984v-3.1h.368q3.408 0 3.408 2.384a2.023 2.023 0 0 1 -2.288 2.24zm13.856-.032h-.1a2.474 2.474 0 0 1 -.912-.128.724.724 0 0 1 -.416-.432 2.856 2.856 0 0 1 -.112-.928v-6.528a3 3 0 0 1 .1-.864.676.676 0 0 1 .328-.424 1.8 1.8 0 0 1 .68-.152 2.205 2.205 0 0 0 .08-.688q-.96.048-1.936.048-1.008 0-1.936-.048a2.175 2.175 0 0 0 .08.688 1.174 1.174 0 0 1 .872.312 1.785 1.785 0 0 1 .232 1.08v6.576a3.341 3.341 0 0 1 -.1.952.756.756 0 0 1 -.336.456 1.716 1.716 0 0 1 -.68.16 2.167 2.167 0 0 0 -.08.688q1.2-.048 4.144-.048 1.855 0 3.1.032a13.933 13.933 0 0 1 .5-2.384 1.69 1.69 0 0 0 -.7-.384 5 5 0 0 1 -.592 1.216 1.747 1.747 0 0 1 -.816.608 4.082 4.082 0 0 1 -1.392.192zm15.92-2.016a5.074 5.074 0 0 1 -.552 1.168 1.816 1.816 0 0 1 -.872.624 5.01 5.01 0 0 1 -1.7.224h-.1a2.545 2.545 0 0 1 -.92-.128.721.721 0 0 1 -.424-.44 2.867 2.867 0 0 1 -.112-.92v-2.9h1.008a2.3 2.3 0 0 1 1.368.3 1.538 1.538 0 0 1 .44 1.128 2.94 2.94 0 0 0 .736.08q-.033-.545-.032-1.856 0-1.2.032-1.744a2.719 2.719 0 0 0 -.768.112 1.224 1.224 0 0 1 -.392 1.032 2.572 2.572 0 0 1 -1.384.264h-1v-4.384h1.49a2.751 2.751 0 0 1 1.976.568 2.287 2.287 0 0 1 .648 1.464 1.137 1.137 0 0 0 .72-.192 21.112 21.112 0 0 1 -.336-2.528q-1.584.048-4.5.048-1.745 0-2.688-.048a2.175 2.175 0 0 0 .08.688 1.174 1.174 0 0 1 .872.312 1.785 1.785 0 0 1 .232 1.08v6.576a3.584 3.584 0 0 1 -.1.96.721.721 0 0 1 -.328.448 1.716 1.716 0 0 1 -.68.16 2.167 2.167 0 0 0 -.08.688q1.2-.048 4.144-.048 2.175 0 3.424.032a13.933 13.933 0 0 1 .5-2.384 1.69 1.69 0 0 0 -.7-.384zm9.536 2.88a4.439 4.439 0 0 0 2.04-.424 2.838 2.838 0 0 0 1.216-1.12 3.066 3.066 0 0 0 .392-1.528 2.545 2.545 0 0 0 -.4-1.456 3.389 3.389 0 0 0 -.968-.96 13.345 13.345 0 0 0 -1.512-.816q-.832-.417-1.3-.7a2.768 2.768 0 0 1 -.8-.736 1.763 1.763 0 0 1 -.328-1.072 1.461 1.461 0 0 1 .48-1.168 1.957 1.957 0 0 1 1.328-.416 1.6 1.6 0 0 1 1.216.472 3.545 3.545 0 0 1 .672 1.784 2.391 2.391 0 0 0 .9-.144 16.79 16.79 0 0 1 -.1-2.112 3.966 3.966 0 0 0 -1.168-.5 5.571 5.571 0 0 0 -1.5-.2 3.413 3.413 0 0 0 -2.352.768 2.681 2.681 0 0 0 -.864 2.112 2.741 2.741 0 0 0 .408 1.544 3.343 3.343 0 0 0 .984.984 15.526 15.526 0 0 0 1.536.832 13.956 13.956 0 0 1 1.3.664 2.709 2.709 0 0 1 .784.712 1.727 1.727 0 0 1 .32 1.056 1.551 1.551 0 0 1 -.5 1.208 2.245 2.245 0 0 1 -1.544.456 2.279 2.279 0 0 1 -1.816-.672 3.136 3.136 0 0 1 -.648-1.952 3.444 3.444 0 0 0 -.864.1 14.759 14.759 0 0 1 -.144 2.272 7.707 7.707 0 0 0 1.584.776 5.2 5.2 0 0 0 1.664.248z" fill-rule="evenodd" transform="translate(-240.875 -544.062)"/></svg>