<svg height="11.1" viewBox="0 0 198.063 11.1" width="198.063" xmlns="http://www.w3.org/2000/svg"><path d="m279.64 5747.91a6.212 6.212 0 0 0 2.1-.33 7.427 7.427 0 0 0 1.9-1.09.777.777 0 0 0 -.1-.26 1.077 1.077 0 0 0 -.184-.24 6.431 6.431 0 0 1 -1.488.69 5.11 5.11 0 0 1 -1.552.26 3.6 3.6 0 0 1 -2.176-.67 4.157 4.157 0 0 1 -1.416-1.82 6.639 6.639 0 0 1 -.488-2.6 5.81 5.81 0 0 1 .4-2.18 3.406 3.406 0 0 1 3.392-2.2 2.346 2.346 0 0 1 1.744.6 3.324 3.324 0 0 1 .656 2.2 2.158 2.158 0 0 0 .848-.15 12.989 12.989 0 0 1 .176-2.48 8.661 8.661 0 0 0 -1.744-.63 7.909 7.909 0 0 0 -1.808-.2 5.784 5.784 0 0 0 -2.632.62 4.883 4.883 0 0 0 -1.968 1.86 5.683 5.683 0 0 0 -.744 2.99 6.389 6.389 0 0 0 .648 2.93 4.816 4.816 0 0 0 4.44 2.7zm10.72-8.92v6.75a1.794 1.794 0 0 1 -.232 1.08 1.156 1.156 0 0 1 -.872.31 2.215 2.215 0 0 0 -.08.69c.544-.03 1.189-.05 1.936-.05.651 0 1.3.02 1.936.05a2.215 2.215 0 0 0 -.08-.69 1.156 1.156 0 0 1 -.872-.31 1.794 1.794 0 0 1 -.232-1.08v-6.75a1.753 1.753 0 0 1 .232-1.08 1.2 1.2 0 0 1 .872-.32 2.1 2.1 0 0 0 .08-.68c-.64.03-1.285.04-1.936.04-.7 0-1.349-.01-1.936-.04a2.1 2.1 0 0 0 .08.68 1.2 1.2 0 0 1 .872.32 1.753 1.753 0 0 1 .232 1.08zm16.272-2.08c-.587.03-1.958.04-4.112.04-2.123 0-3.483-.01-4.08-.04a14.939 14.939 0 0 1 -.256 2.56 1.631 1.631 0 0 0 .768.14 5.474 5.474 0 0 1 .3-1.1 1.329 1.329 0 0 1 .568-.62 2.338 2.338 0 0 1 1.136-.23h.816v8.08a2.567 2.567 0 0 1 -.1.83.69.69 0 0 1 -.376.41 2.413 2.413 0 0 1 -.8.15 2.185 2.185 0 0 0 -.08.69c.6-.03 1.3-.05 2.1-.05.714 0 1.413.02 2.1.05a2.215 2.215 0 0 0 -.08-.69 2.326 2.326 0 0 1 -.792-.15.645.645 0 0 1 -.36-.4 2.787 2.787 0 0 1 -.1-.84v-8.08h.848a1.69 1.69 0 0 1 1.344.49 2.315 2.315 0 0 1 .464 1.46 1.8 1.8 0 0 0 .8-.14c-.075-.9-.112-1.56-.112-1.99zm12.72 8.62c-.5-.85-.88-1.47-1.136-1.85a9.539 9.539 0 0 0 -.944-1.16 3.856 3.856 0 0 0 1.976-1.09 2.589 2.589 0 0 0 .712-1.82 2.41 2.41 0 0 0 -.88-1.94 3.93 3.93 0 0 0 -2.608-.75l-1.344.02c-.3.01-.742.01-1.328.01q-1.281 0-1.92-.03a2.26 2.26 0 0 0 .08.67 1.052 1.052 0 0 1 .872.3 1.875 1.875 0 0 1 .232 1.1v6.75a1.851 1.851 0 0 1 -.224 1.08 1.152 1.152 0 0 1 -.88.31 2.362 2.362 0 0 0 -.08.69c.48-.03 1.12-.05 1.92-.05s1.445.02 1.9.05a2.3 2.3 0 0 0 -.08-.69 1.075 1.075 0 0 1 -.84-.31 1.9 1.9 0 0 1 -.216-1.08v-2.9q.384.03.624.03l.5-.01a11.283 11.283 0 0 1 1.08 1.32c.272.4.573.9.9 1.49l.192.36c.309.6.666 1.23 1.072 1.88a17.543 17.543 0 0 1 2.512-.14 2.759 2.759 0 0 0 .064-.69 3.037 3.037 0 0 1 -.936-.17 1.638 1.638 0 0 1 -.6-.45 6.7 6.7 0 0 1 -.624-.93zm-4.784-3.42v-4.36a6.106 6.106 0 0 1 1.184-.12 3 3 0 0 1 2.008.56 2.277 2.277 0 0 1 -.232 3.36 3.876 3.876 0 0 1 -2.256.6 6 6 0 0 1 -.7-.04zm20.32 1.36v-3.84a6.818 6.818 0 0 1 .08-1.21 1.047 1.047 0 0 1 .28-.6 1.11 1.11 0 0 1 .584-.23 4.089 4.089 0 0 0 .08-.68c-.416.03-.923.04-1.52.04-.64 0-1.142-.01-1.5-.04a3.423 3.423 0 0 0 .08.68 1.368 1.368 0 0 1 .712.24.931.931 0 0 1 .312.58 6.811 6.811 0 0 1 .08 1.22v3.96a8.441 8.441 0 0 1 -.152 1.87 2.113 2.113 0 0 1 -.536 1 1.91 1.91 0 0 1 -.776.45 2.774 2.774 0 0 1 -.92.16 2.42 2.42 0 0 1 -2.1-.86 3.977 3.977 0 0 1 -.616-2.36v-4.86a3.377 3.377 0 0 1 .08-.88.566.566 0 0 1 .3-.36 2.5 2.5 0 0 1 .728-.16 2.569 2.569 0 0 0 .08-.68c-.48.03-1.1.04-1.856.04-.811 0-1.43-.01-1.856-.04a2.528 2.528 0 0 0 .08.68 1.93 1.93 0 0 1 .608.16.625.625 0 0 1 .264.39 3.593 3.593 0 0 1 .072.85v5.08a4.1 4.1 0 0 0 .888 2.9 4.035 4.035 0 0 0 3.032.94 3.5 3.5 0 0 0 2.592-.91 2.729 2.729 0 0 0 .72-1.31 9.83 9.83 0 0 0 .192-2.22zm9.855 4.44a4.46 4.46 0 0 0 2.04-.42 2.833 2.833 0 0 0 1.216-1.12 3.036 3.036 0 0 0 .392-1.53 2.522 2.522 0 0 0 -.4-1.45 3.242 3.242 0 0 0 -.968-.96 12.811 12.811 0 0 0 -1.512-.82c-.554-.28-.989-.51-1.3-.7a2.9 2.9 0 0 1 -.8-.74 1.779 1.779 0 0 1 -.328-1.07 1.473 1.473 0 0 1 .48-1.17 1.95 1.95 0 0 1 1.328-.42 1.582 1.582 0 0 1 1.216.48 3.514 3.514 0 0 1 .672 1.78 2.517 2.517 0 0 0 .9-.14 16.937 16.937 0 0 1 -.1-2.12 3.956 3.956 0 0 0 -1.168-.5 5.728 5.728 0 0 0 -1.5-.2 3.424 3.424 0 0 0 -2.352.77 2.668 2.668 0 0 0 -.864 2.11 2.721 2.721 0 0 0 .408 1.54 3.3 3.3 0 0 0 .984.99 16.7 16.7 0 0 0 1.536.83q.832.39 1.3.66a2.738 2.738 0 0 1 .784.72 1.7 1.7 0 0 1 .32 1.05 1.551 1.551 0 0 1 -.5 1.21 2.79 2.79 0 0 1 -3.36-.22 3.109 3.109 0 0 1 -.648-1.95 3.186 3.186 0 0 0 -.864.1 14.722 14.722 0 0 1 -.144 2.27 8.116 8.116 0 0 0 1.584.78 5.36 5.36 0 0 0 1.664.24zm21.024 0a6.212 6.212 0 0 0 2.1-.33 7.427 7.427 0 0 0 1.9-1.09.777.777 0 0 0 -.1-.26 1.077 1.077 0 0 0 -.184-.24 6.431 6.431 0 0 1 -1.488.69 5.11 5.11 0 0 1 -1.552.26 3.6 3.6 0 0 1 -2.176-.67 4.157 4.157 0 0 1 -1.416-1.82 6.639 6.639 0 0 1 -.488-2.6 5.81 5.81 0 0 1 .4-2.18 3.406 3.406 0 0 1 3.392-2.2 2.346 2.346 0 0 1 1.744.6 3.324 3.324 0 0 1 .656 2.2 2.158 2.158 0 0 0 .848-.15 12.989 12.989 0 0 1 .176-2.48 8.661 8.661 0 0 0 -1.744-.63 7.909 7.909 0 0 0 -1.808-.2 5.784 5.784 0 0 0 -2.632.62 4.883 4.883 0 0 0 -1.968 1.86 5.683 5.683 0 0 0 -.744 2.99 6.389 6.389 0 0 0 .648 2.93 4.816 4.816 0 0 0 4.44 2.7zm19.408-.78a.952.952 0 0 1 -.6-.35 6.154 6.154 0 0 1 -.632-1.19l-3.808-8.73a2.91 2.91 0 0 0 -.624.06l-3.312 8.5a6.812 6.812 0 0 1 -.624 1.31 1.059 1.059 0 0 1 -.656.42 1.736 1.736 0 0 0 -.112.67c.608-.03 1.051-.05 1.328-.05.651 0 1.157.02 1.52.05a1.81 1.81 0 0 0 -.112-.69 1.2 1.2 0 0 1 -.632-.18.562.562 0 0 1 -.2-.48 3.215 3.215 0 0 1 .256-1.05l.432-1.11q1.68-.06 4.224-.06l.7 1.63a2.828 2.828 0 0 1 .24.79.337.337 0 0 1 -.184.32 2.011 2.011 0 0 1 -.632.14 1.614 1.614 0 0 0 -.112.69c.64-.03 1.243-.05 1.808-.05s1.184.02 1.824.05a2.358 2.358 0 0 0 -.1-.69zm-7.488-3.6 1.1-2.86c.288-.79.491-1.37.608-1.73q.224.645.7 1.74l1.216 2.85h-3.632zm16.96 3.52h-.1a2.373 2.373 0 0 1 -.912-.13.713.713 0 0 1 -.416-.43 2.841 2.841 0 0 1 -.112-.93v-6.53a2.983 2.983 0 0 1 .1-.86.676.676 0 0 1 .328-.42 1.97 1.97 0 0 1 .68-.16 2.1 2.1 0 0 0 .08-.68c-.64.03-1.285.04-1.936.04-.672 0-1.317-.01-1.936-.04a2.1 2.1 0 0 0 .08.68 1.2 1.2 0 0 1 .872.32 1.753 1.753 0 0 1 .232 1.08v6.57a3.264 3.264 0 0 1 -.1.95.736.736 0 0 1 -.336.46 1.6 1.6 0 0 1 -.68.16 2.215 2.215 0 0 0 -.08.69c.8-.03 2.181-.05 4.144-.05q1.856 0 3.1.03a13.9 13.9 0 0 1 .5-2.38 1.74 1.74 0 0 0 -.7-.39 4.911 4.911 0 0 1 -.592 1.22 1.744 1.744 0 0 1 -.816.61 4.031 4.031 0 0 1 -1.392.19zm15.92-2.02a4.73 4.73 0 0 1 -.552 1.17 1.794 1.794 0 0 1 -.872.63 5 5 0 0 1 -1.7.22h-.1a2.436 2.436 0 0 1 -.92-.13.7.7 0 0 1 -.424-.44 2.854 2.854 0 0 1 -.112-.92v-2.89h1.013a2.37 2.37 0 0 1 1.368.29 1.554 1.554 0 0 1 .44 1.13 3.094 3.094 0 0 0 .736.08q-.032-.54-.032-1.86 0-1.2.032-1.74a2.908 2.908 0 0 0 -.768.11 1.211 1.211 0 0 1 -.392 1.03 2.524 2.524 0 0 1 -1.384.27h-1v-4.39h1.488a2.744 2.744 0 0 1 1.976.57 2.293 2.293 0 0 1 .648 1.47 1.124 1.124 0 0 0 .72-.2 21.375 21.375 0 0 1 -.336-2.52c-1.056.03-2.555.04-4.5.04-1.163 0-2.059-.01-2.688-.04a2.1 2.1 0 0 0 .08.68 1.2 1.2 0 0 1 .872.32 1.753 1.753 0 0 1 .232 1.08v6.57a3.544 3.544 0 0 1 -.1.96.688.688 0 0 1 -.328.45 1.6 1.6 0 0 1 -.68.16 2.215 2.215 0 0 0 -.08.69c.8-.03 2.181-.05 4.144-.05q2.177 0 3.424.03a13.9 13.9 0 0 1 .5-2.38 1.74 1.74 0 0 0 -.7-.39zm14.9-8.08c-.544 0-1.045-.01-1.5-.04a4.329 4.329 0 0 0 .08.68.987.987 0 0 1 .672.21 1.2 1.2 0 0 1 .336.69 7.506 7.506 0 0 1 .1 1.38v5.29l-6.224-8.25c-.288.03-.645.04-1.072.04-.469 0-.864-.01-1.184-.04a2.569 2.569 0 0 0 .08.68 2.19 2.19 0 0 1 .616.13 1.454 1.454 0 0 1 .424.37l.064.08v6.61a7.928 7.928 0 0 1 -.1 1.42 1.237 1.237 0 0 1 -.336.71.943.943 0 0 1 -.672.22 2.3 2.3 0 0 0 -.08.69c.4-.03.939-.05 1.6-.05.576 0 1.1.02 1.584.05a2.3 2.3 0 0 0 -.08-.69.943.943 0 0 1 -.672-.22 1.237 1.237 0 0 1 -.336-.71 7.928 7.928 0 0 1 -.1-1.42v-5.54l6.608 8.63a2.1 2.1 0 0 0 .688-.1v-7.9a8.087 8.087 0 0 1 .088-1.37 1.356 1.356 0 0 1 .288-.7.747.747 0 0 1 .568-.21 2.569 2.569 0 0 0 .08-.68c-.437.03-.944.04-1.52.04zm11.056-.03c-.416 0-.731.01-.944.02l-.944.01c-1 0-1.75-.01-2.24-.04a2.074 2.074 0 0 0 .08.68 1.2 1.2 0 0 1 .872.32 1.76 1.76 0 0 1 .232 1.08v6.57a3.264 3.264 0 0 1 -.1.95.743.743 0 0 1 -.336.46 1.6 1.6 0 0 1 -.68.16 2.185 2.185 0 0 0 -.08.69c.8-.03 2.181-.05 4.144-.05a7.938 7.938 0 0 0 4.152-1.15q1.928-1.155 1.928-4.53c0-1.98-.574-3.34-1.72-4.07a7.982 7.982 0 0 0 -4.36-1.1zm0 10.13a2.366 2.366 0 0 1 -.912-.13.71.71 0 0 1 -.416-.43 2.841 2.841 0 0 1 -.112-.93v-7.89a3.947 3.947 0 0 1 .552-.1 4.838 4.838 0 0 1 .632-.04 5.439 5.439 0 0 1 2.336.5 3.885 3.885 0 0 1 1.7 1.57 5.234 5.234 0 0 1 .648 2.73 4.76 4.76 0 0 1 -1.176 3.64 4.634 4.634 0 0 1 -3.256 1.08zm21.248.08a.947.947 0 0 1 -.6-.35 6.1 6.1 0 0 1 -.632-1.19l-3.808-8.73a2.91 2.91 0 0 0 -.624.06l-3.312 8.5a6.812 6.812 0 0 1 -.624 1.31 1.059 1.059 0 0 1 -.656.42 1.736 1.736 0 0 0 -.112.67c.608-.03 1.05-.05 1.328-.05.65 0 1.157.02 1.52.05a1.83 1.83 0 0 0 -.112-.69 1.2 1.2 0 0 1 -.632-.18.559.559 0 0 1 -.2-.48 3.215 3.215 0 0 1 .256-1.05l.432-1.11q1.68-.06 4.224-.06l.7 1.63a2.828 2.828 0 0 1 .24.79.339.339 0 0 1 -.184.32 2.018 2.018 0 0 1 -.632.14 1.614 1.614 0 0 0 -.112.69c.64-.03 1.242-.05 1.808-.05s1.184.02 1.824.05a2.358 2.358 0 0 0 -.1-.69zm-7.488-3.6 1.1-2.86c.288-.79.49-1.37.608-1.73q.224.645.7 1.74l1.216 2.85h-3.632zm20.192 2c-.5-.85-.88-1.47-1.136-1.85a9.539 9.539 0 0 0 -.944-1.16 3.856 3.856 0 0 0 1.976-1.09 2.589 2.589 0 0 0 .712-1.82 2.41 2.41 0 0 0 -.88-1.94 3.93 3.93 0 0 0 -2.608-.75l-1.344.02c-.3.01-.742.01-1.328.01q-1.281 0-1.92-.03a2.26 2.26 0 0 0 .08.67 1.052 1.052 0 0 1 .872.3 1.875 1.875 0 0 1 .232 1.1v6.75a1.851 1.851 0 0 1 -.224 1.08 1.152 1.152 0 0 1 -.88.31 2.362 2.362 0 0 0 -.08.69c.48-.03 1.12-.05 1.92-.05s1.445.02 1.9.05a2.3 2.3 0 0 0 -.08-.69 1.075 1.075 0 0 1 -.84-.31 1.9 1.9 0 0 1 -.216-1.08v-2.9q.384.03.624.03l.5-.01a11.283 11.283 0 0 1 1.08 1.32c.272.4.573.9.9 1.49l.192.36c.309.6.666 1.23 1.072 1.88a17.543 17.543 0 0 1 2.512-.14 2.759 2.759 0 0 0 .064-.69 3.037 3.037 0 0 1 -.936-.17 1.638 1.638 0 0 1 -.6-.45 6.7 6.7 0 0 1 -.624-.93zm-4.784-3.42v-4.36a6.106 6.106 0 0 1 1.184-.12 3 3 0 0 1 2.008.56 2.277 2.277 0 0 1 -.232 3.36 3.876 3.876 0 0 1 -2.256.6 6 6 0 0 1 -.7-.04z" fill-rule="evenodd" transform="translate(-274.562 -5736.81)"/></svg>