<svg height="12.5" viewBox="0 0 125.375 12.5" width="125.375" xmlns="http://www.w3.org/2000/svg"><path d="m319.562 3700.69a5.711 5.711 0 0 0 3.069-.83 5.778 5.778 0 0 0 2.124-2.25 7.138 7.138 0 0 0 0-6.43 5.579 5.579 0 0 0 -2.124-2.2 6.054 6.054 0 0 0 -3.069-.78 5.857 5.857 0 0 0 -3.015.79 5.732 5.732 0 0 0 -2.142 2.21 6.5 6.5 0 0 0 -.783 3.21 6.808 6.808 0 0 0 .747 3.21 5.541 5.541 0 0 0 2.1 2.25 5.814 5.814 0 0 0 3.1.82zm.36-.88a3.632 3.632 0 0 1 -2.376-.82 5.128 5.128 0 0 1 -1.539-2.17 7.826 7.826 0 0 1 -.531-2.9 6.274 6.274 0 0 1 .477-2.53 3.939 3.939 0 0 1 1.323-1.71 3.17 3.17 0 0 1 1.908-.62 3.686 3.686 0 0 1 2.286.78 5.174 5.174 0 0 1 1.611 2.1 7.246 7.246 0 0 1 .585 2.94 6.717 6.717 0 0 1 -.45 2.51 4.031 4.031 0 0 1 -1.305 1.77 3.215 3.215 0 0 1 -1.989.65zm20.61-11.45c-.492 0-1-.02-1.53-.05a3.015 3.015 0 0 0 .09.77 1.29 1.29 0 0 1 .756.32.948.948 0 0 1 .234.69 3.785 3.785 0 0 1 -.252 1.19q-1.116 3.135-2.682 6.69c-.972-2.67-1.866-4.98-2.682-6.91a3.947 3.947 0 0 1 -.414-1.33.493.493 0 0 1 .261-.48 2.479 2.479 0 0 1 .873-.17 3.576 3.576 0 0 0 .09-.77c-.684.03-1.41.05-2.178.05-.984 0-1.71-.02-2.178-.05a3.186 3.186 0 0 0 .09.77 1.175 1.175 0 0 1 .531.18 1.7 1.7 0 0 1 .387.53c.132.26.336.71.612 1.36q1.638 3.855 3.726 9.49a3.622 3.622 0 0 0 .7-.07q1.98-4.8 3.762-9.36a8.859 8.859 0 0 1 .711-1.52 1.388 1.388 0 0 1 .837-.61 3.015 3.015 0 0 0 .09-.77c-.516.03-1.128.05-1.836.05zm15.894 9.09a5.621 5.621 0 0 1 -.621 1.32 2.038 2.038 0 0 1 -.981.7 5.583 5.583 0 0 1 -1.908.25h-.108a3.012 3.012 0 0 1 -1.035-.14.814.814 0 0 1 -.477-.5 3.208 3.208 0 0 1 -.126-1.03v-3.26h1.13a2.611 2.611 0 0 1 1.539.33 1.733 1.733 0 0 1 .5 1.27 3.294 3.294 0 0 0 .828.09c-.024-.41-.036-1.1-.036-2.09 0-.9.012-1.55.036-1.96a2.876 2.876 0 0 0 -.864.13 1.382 1.382 0 0 1 -.441 1.16 2.886 2.886 0 0 1 -1.557.29h-1.135v-4.93h1.674a3.123 3.123 0 0 1 2.223.64 2.591 2.591 0 0 1 .729 1.65 1.243 1.243 0 0 0 .81-.22 23.776 23.776 0 0 1 -.378-2.84c-1.188.03-2.874.05-5.058.05-1.308 0-2.316-.02-3.024-.05a2.436 2.436 0 0 0 .09.77 1.346 1.346 0 0 1 .981.35 2.024 2.024 0 0 1 .261 1.22v7.4a4.024 4.024 0 0 1 -.108 1.08.807.807 0 0 1 -.369.5 1.781 1.781 0 0 1 -.765.18 2.479 2.479 0 0 0 -.09.77c.9-.03 2.454-.05 4.662-.05 1.632 0 2.916.01 3.852.04a15.872 15.872 0 0 1 .558-2.69 1.921 1.921 0 0 0 -.792-.43zm15.264.56c-.565-.96-.99-1.65-1.278-2.08a10.483 10.483 0 0 0 -1.062-1.3 4.4 4.4 0 0 0 2.223-1.23 2.909 2.909 0 0 0 .8-2.05 2.738 2.738 0 0 0 -.99-2.19 4.49 4.49 0 0 0 -2.934-.83l-1.512.01c-.336.02-.835.02-1.494.02q-1.442 0-2.16-.03a2.524 2.524 0 0 0 .09.75 1.168 1.168 0 0 1 .981.34 2.089 2.089 0 0 1 .261 1.23v7.59a2.082 2.082 0 0 1 -.252 1.22 1.3 1.3 0 0 1 -.99.35 2.625 2.625 0 0 0 -.09.77c.54-.03 1.26-.05 2.16-.05s1.626.02 2.142.05a2.567 2.567 0 0 0 -.09-.77 1.214 1.214 0 0 1 -.945-.35 2.144 2.144 0 0 1 -.243-1.22v-3.25q.432.03.7.03l.558-.02a12.7 12.7 0 0 1 1.215 1.49q.459.675 1.017 1.68l.216.4c.348.68.749 1.39 1.206 2.12a18.455 18.455 0 0 1 2.826-.16 3.114 3.114 0 0 0 .072-.77 3.355 3.355 0 0 1 -1.053-.2 1.77 1.77 0 0 1 -.675-.51 7.312 7.312 0 0 1 -.7-1.04zm-5.382-3.85v-4.9a6.887 6.887 0 0 1 1.332-.14 3.3 3.3 0 0 1 2.259.64 2.241 2.241 0 0 1 .711 1.77 2.287 2.287 0 0 1 -.972 2.01 4.36 4.36 0 0 1 -2.538.67 7.769 7.769 0 0 1 -.792-.05zm22.661-5.8c-.492 0-1-.02-1.53-.05a3.015 3.015 0 0 0 .09.77 1.29 1.29 0 0 1 .756.32.948.948 0 0 1 .234.69 3.785 3.785 0 0 1 -.252 1.19q-1.116 3.135-2.682 6.69c-.972-2.67-1.866-4.98-2.682-6.91a3.947 3.947 0 0 1 -.414-1.33.493.493 0 0 1 .261-.48 2.481 2.481 0 0 1 .874-.17 3.636 3.636 0 0 0 .089-.77c-.684.03-1.41.05-2.178.05-.984 0-1.71-.02-2.178-.05a3.186 3.186 0 0 0 .09.77 1.175 1.175 0 0 1 .531.18 1.7 1.7 0 0 1 .387.53c.132.26.336.71.612 1.36q1.638 3.855 3.726 9.49a3.622 3.622 0 0 0 .7-.07q1.98-4.8 3.762-9.36a8.859 8.859 0 0 1 .711-1.52 1.388 1.388 0 0 1 .837-.61 3.015 3.015 0 0 0 .09-.77c-.516.03-1.128.05-1.836.05zm8.946 2.29v7.59a2.024 2.024 0 0 1 -.261 1.22 1.305 1.305 0 0 1 -.981.35 2.479 2.479 0 0 0 -.09.77c.612-.03 1.338-.05 2.178-.05.732 0 1.458.02 2.178.05a2.479 2.479 0 0 0 -.09-.77 1.305 1.305 0 0 1 -.981-.35 2.024 2.024 0 0 1 -.261-1.22v-7.59a2.024 2.024 0 0 1 .261-1.22 1.346 1.346 0 0 1 .981-.35 2.436 2.436 0 0 0 .09-.77c-.72.03-1.446.05-2.178.05-.792 0-1.518-.02-2.178-.05a2.436 2.436 0 0 0 .09.77 1.346 1.346 0 0 1 .981.35 2.024 2.024 0 0 1 .261 1.22zm17.64 6.8a5.621 5.621 0 0 1 -.621 1.32 2.038 2.038 0 0 1 -.981.7 5.583 5.583 0 0 1 -1.908.25h-.108a3.012 3.012 0 0 1 -1.035-.14.814.814 0 0 1 -.477-.5 3.208 3.208 0 0 1 -.126-1.03v-3.26h1.134a2.611 2.611 0 0 1 1.539.33 1.733 1.733 0 0 1 .5 1.27 3.294 3.294 0 0 0 .828.09c-.024-.41-.036-1.1-.036-2.09 0-.9.012-1.55.036-1.96a2.876 2.876 0 0 0 -.864.13 1.382 1.382 0 0 1 -.441 1.16 2.886 2.886 0 0 1 -1.557.29h-1.138v-4.93h1.674a3.123 3.123 0 0 1 2.223.64 2.591 2.591 0 0 1 .729 1.65 1.243 1.243 0 0 0 .81-.22 23.776 23.776 0 0 1 -.378-2.84c-1.188.03-2.874.05-5.058.05-1.308 0-2.316-.02-3.024-.05a2.436 2.436 0 0 0 .09.77 1.346 1.346 0 0 1 .981.35 2.024 2.024 0 0 1 .261 1.22v7.4a4.024 4.024 0 0 1 -.108 1.08.807.807 0 0 1 -.369.5 1.781 1.781 0 0 1 -.765.18 2.479 2.479 0 0 0 -.09.77c.9-.03 2.454-.05 4.662-.05 1.632 0 2.916.01 3.852.04a15.872 15.872 0 0 1 .558-2.69 1.921 1.921 0 0 0 -.792-.43zm21.744-9.09c-.66 0-1.242-.02-1.746-.05a2.09 2.09 0 0 0 .126.77 1.5 1.5 0 0 1 .873.34 1.006 1.006 0 0 1 .279.78 5.724 5.724 0 0 1 -.288 1.44l-1.908 6.05q-1.818-5.25-3.438-9.47a2.442 2.442 0 0 0 -.792.09l-3.168 9.34c-.516-1.72-1.218-3.95-2.106-6.71a4.581 4.581 0 0 1 -.306-1.25.443.443 0 0 1 .252-.45 2.814 2.814 0 0 1 .9-.16 3.186 3.186 0 0 0 .09-.77c-.66.03-1.386.05-2.178.05s-1.458-.02-2.034-.05a2.659 2.659 0 0 0 .09.77.905.905 0 0 1 .891.67 14.288 14.288 0 0 1 .531 1.4q1.422 4.3 3.024 9.54a2.075 2.075 0 0 0 .774-.11l3.168-9.45q1.71 4.455 3.51 9.56a1.894 1.894 0 0 0 .72-.11l2.808-8.89c.216-.69.4-1.21.54-1.55a2.465 2.465 0 0 1 .432-.75 1.009 1.009 0 0 1 .54-.31 2.329 2.329 0 0 0 .126-.77c-.48.03-1.05.05-1.71.05z" fill-rule="evenodd" transform="translate(-313.625 -3688.19)"/></svg>