<svg height="5.563" viewBox="0 0 31.844 5.563" width="31.844" xmlns="http://www.w3.org/2000/svg"><path d="m32.07 70.337a3.056 3.056 0 0 0 1.052-.168 3.6 3.6 0 0 0 .948-.544.388.388 0 0 0 -.052-.132.431.431 0 0 0 -.092-.116 3.264 3.264 0 0 1 -.744.344 2.542 2.542 0 0 1 -.776.128 1.821 1.821 0 0 1 -1.088-.332 2.083 2.083 0 0 1 -.708-.912 3.32 3.32 0 0 1 -.244-1.3 2.882 2.882 0 0 1 .2-1.088 1.713 1.713 0 0 1 1.7-1.1 1.173 1.173 0 0 1 .872.3 1.666 1.666 0 0 1 .328 1.1 1.12 1.12 0 0 0 .424-.072 6.456 6.456 0 0 1 .088-1.24 4.517 4.517 0 0 0 -.872-.316 3.863 3.863 0 0 0 -.9-.1 2.856 2.856 0 0 0 -1.316.312 2.418 2.418 0 0 0 -.984.928 2.843 2.843 0 0 0 -.372 1.5 3.2 3.2 0 0 0 .324 1.464 2.424 2.424 0 0 0 .9 1 2.464 2.464 0 0 0 1.316.356zm6.888-.432h-.048a1.234 1.234 0 0 1 -.456-.064.361.361 0 0 1 -.208-.216 1.43 1.43 0 0 1 -.056-.464v-3.261a1.505 1.505 0 0 1 .048-.432.339.339 0 0 1 .164-.212.9.9 0 0 1 .34-.076 1.1 1.1 0 0 0 .04-.344q-.48.024-.968.024-.5 0-.968-.024a1.091 1.091 0 0 0 .04.344.588.588 0 0 1 .436.156.892.892 0 0 1 .116.54v3.288a1.666 1.666 0 0 1 -.052.476.375.375 0 0 1 -.168.228.848.848 0 0 1 -.34.08 1.091 1.091 0 0 0 -.04.344q.6-.024 2.072-.024.928 0 1.552.016a6.98 6.98 0 0 1 .248-1.192.845.845 0 0 0 -.352-.192 2.483 2.483 0 0 1 -.3.608.871.871 0 0 1 -.408.3 2.039 2.039 0 0 1 -.7.1zm6.752.432a2.557 2.557 0 0 0 2.308-1.372 3.169 3.169 0 0 0 0-2.856 2.446 2.446 0 0 0 -.944-.976 2.682 2.682 0 0 0 -1.364-.348 2.612 2.612 0 0 0 -1.34.352 2.529 2.529 0 0 0 -.952.98 2.9 2.9 0 0 0 -.348 1.428 3.039 3.039 0 0 0 .332 1.428 2.5 2.5 0 0 0 .932 1 2.6 2.6 0 0 0 1.376.364zm.16-.392a1.623 1.623 0 0 1 -1.056-.364 2.294 2.294 0 0 1 -.684-.964 3.488 3.488 0 0 1 -.236-1.288 2.81 2.81 0 0 1 .212-1.128 1.793 1.793 0 0 1 .588-.76 1.412 1.412 0 0 1 .848-.272 1.647 1.647 0 0 1 1.016.344 2.3 2.3 0 0 1 .716.936 3.208 3.208 0 0 1 .26 1.3 2.982 2.982 0 0 1 -.2 1.116 1.8 1.8 0 0 1 -.58.788 1.423 1.423 0 0 1 -.884.288zm6.856.392a2.215 2.215 0 0 0 1.02-.212 1.415 1.415 0 0 0 .608-.56 1.53 1.53 0 0 0 .2-.764 1.271 1.271 0 0 0 -.2-.728 1.693 1.693 0 0 0 -.484-.48 6.734 6.734 0 0 0 -.756-.408q-.416-.208-.652-.352a1.386 1.386 0 0 1 -.4-.368.883.883 0 0 1 -.164-.536.731.731 0 0 1 .24-.584.981.981 0 0 1 .664-.208.8.8 0 0 1 .608.236 1.769 1.769 0 0 1 .336.892 1.193 1.193 0 0 0 .448-.072 8.391 8.391 0 0 1 -.048-1.056 1.991 1.991 0 0 0 -.584-.252 2.8 2.8 0 0 0 -.752-.1 1.707 1.707 0 0 0 -1.176.384 1.34 1.34 0 0 0 -.432 1.056 1.369 1.369 0 0 0 .2.772 1.664 1.664 0 0 0 .492.492 7.66 7.66 0 0 0 .768.416 6.95 6.95 0 0 1 .648.332 1.352 1.352 0 0 1 .392.356.862.862 0 0 1 .16.528.775.775 0 0 1 -.252.6 1.122 1.122 0 0 1 -.772.228 1.14 1.14 0 0 1 -.908-.336 1.571 1.571 0 0 1 -.324-.976 1.724 1.724 0 0 0 -.432.048 7.375 7.375 0 0 1 -.072 1.136 3.848 3.848 0 0 0 .792.388 2.6 2.6 0 0 0 .832.124zm8.3-1.44a2.508 2.508 0 0 1 -.276.584.9.9 0 0 1 -.436.312 2.5 2.5 0 0 1 -.848.112h-.052a1.269 1.269 0 0 1 -.46-.064.361.361 0 0 1 -.212-.22 1.438 1.438 0 0 1 -.056-.46v-1.448h.5a1.152 1.152 0 0 1 .684.148.768.768 0 0 1 .22.564 1.462 1.462 0 0 0 .368.04q-.016-.272-.016-.928 0-.6.016-.872a1.367 1.367 0 0 0 -.384.056.61.61 0 0 1 -.2.516 1.285 1.285 0 0 1 -.692.132h-.5v-2.192h.748a1.376 1.376 0 0 1 .988.284 1.142 1.142 0 0 1 .324.732.569.569 0 0 0 .36-.1 10.678 10.678 0 0 1 -.168-1.264q-.792.024-2.248.024-.872 0-1.344-.024a1.094 1.094 0 0 0 .04.344.587.587 0 0 1 .436.156.891.891 0 0 1 .116.54v3.288a1.789 1.789 0 0 1 -.048.48.358.358 0 0 1 -.164.224.847.847 0 0 1 -.34.08 1.094 1.094 0 0 0 -.04.344q.6-.024 2.072-.024 1.088 0 1.712.016a6.99 6.99 0 0 1 .248-1.192.844.844 0 0 0 -.352-.192z" fill-rule="evenodd" transform="translate(-29.531 -64.781)"/></svg>