<svg height="11.032" viewBox="0 0 73.969 11.032" width="73.969" xmlns="http://www.w3.org/2000/svg"><path d="m337.128 554.311h-.1a2.481 2.481 0 0 1 -.912-.128.727.727 0 0 1 -.416-.432 2.856 2.856 0 0 1 -.112-.928v-6.528a3 3 0 0 1 .1-.864.676.676 0 0 1 .328-.424 1.8 1.8 0 0 1 .68-.152 2.205 2.205 0 0 0 .08-.688q-.96.048-1.936.048-1.008 0-1.936-.048a2.205 2.205 0 0 0 .08.688 1.172 1.172 0 0 1 .872.312 1.778 1.778 0 0 1 .232 1.08v6.576a3.341 3.341 0 0 1 -.1.952.749.749 0 0 1 -.336.456 1.712 1.712 0 0 1 -.68.16 2.2 2.2 0 0 0 -.08.688q1.2-.048 4.144-.048 1.856 0 3.1.032a13.933 13.933 0 0 1 .5-2.384 1.69 1.69 0 0 0 -.7-.384 4.964 4.964 0 0 1 -.592 1.216 1.747 1.747 0 0 1 -.816.608 4.074 4.074 0 0 1 -1.392.192zm9.744-8.064v6.753a1.782 1.782 0 0 1 -.232 1.08 1.18 1.18 0 0 1 -.872.312 2.2 2.2 0 0 0 -.08.688q.816-.048 1.936-.048.976 0 1.936.048a2.2 2.2 0 0 0 -.08-.688 1.18 1.18 0 0 1 -.872-.312 1.782 1.782 0 0 1 -.232-1.08v-6.752a1.778 1.778 0 0 1 .232-1.08 1.172 1.172 0 0 1 .872-.312 2.205 2.205 0 0 0 .08-.688q-.96.048-1.936.048-1.056 0-1.936-.048a2.205 2.205 0 0 0 .08.688 1.172 1.172 0 0 1 .872.312 1.778 1.778 0 0 1 .232 1.08zm17.12-2.032q-.816 0-1.5-.048a4.423 4.423 0 0 0 .08.688.992.992 0 0 1 .672.208 1.192 1.192 0 0 1 .336.688 7.472 7.472 0 0 1 .1 1.376v5.3l-6.224-8.256a9.979 9.979 0 0 1 -1.072.048q-.7 0-1.184-.048a2.57 2.57 0 0 0 .08.688 1.822 1.822 0 0 1 .616.128 1.343 1.343 0 0 1 .424.368l.064.08v6.608a8 8 0 0 1 -.1 1.424 1.257 1.257 0 0 1 -.336.712.969.969 0 0 1 -.672.216 2.261 2.261 0 0 0 -.08.688q.607-.048 1.6-.048.864 0 1.584.048a2.294 2.294 0 0 0 -.08-.688.969.969 0 0 1 -.672-.216 1.257 1.257 0 0 1 -.336-.712 8 8 0 0 1 -.1-1.424v-5.543l6.608 8.624a2.01 2.01 0 0 0 .688-.1v-7.9a8.125 8.125 0 0 1 .088-1.368 1.331 1.331 0 0 1 .288-.7.748.748 0 0 1 .568-.208 2.611 2.611 0 0 0 .08-.688q-.657.048-1.52.048zm14.272 8.08a5.074 5.074 0 0 1 -.552 1.168 1.816 1.816 0 0 1 -.872.624 5.01 5.01 0 0 1 -1.7.224h-.1a2.545 2.545 0 0 1 -.92-.128.721.721 0 0 1 -.424-.44 2.867 2.867 0 0 1 -.112-.92v-2.9h1.016a2.3 2.3 0 0 1 1.368.3 1.538 1.538 0 0 1 .44 1.128 2.94 2.94 0 0 0 .736.08q-.033-.545-.032-1.856 0-1.2.032-1.744a2.719 2.719 0 0 0 -.768.112 1.224 1.224 0 0 1 -.392 1.032 2.572 2.572 0 0 1 -1.384.264h-1.008v-4.384h1.488a2.751 2.751 0 0 1 1.976.568 2.287 2.287 0 0 1 .648 1.464 1.137 1.137 0 0 0 .72-.192 21.112 21.112 0 0 1 -.336-2.528q-1.584.048-4.5.048-1.745 0-2.688-.048a2.175 2.175 0 0 0 .08.688 1.174 1.174 0 0 1 .872.312 1.785 1.785 0 0 1 .232 1.08v6.576a3.584 3.584 0 0 1 -.1.96.721.721 0 0 1 -.328.448 1.716 1.716 0 0 1 -.68.16 2.167 2.167 0 0 0 -.08.688q1.2-.048 4.144-.048 2.175 0 3.424.032a13.933 13.933 0 0 1 .5-2.384 1.69 1.69 0 0 0 -.7-.384zm14.32-1.568v-3.84a6.862 6.862 0 0 1 .08-1.208 1.028 1.028 0 0 1 .28-.6 1.062 1.062 0 0 1 .584-.224 4.271 4.271 0 0 0 .08-.688q-.624.048-1.52.048-.96 0-1.5-.048a3.537 3.537 0 0 0 .08.688 1.362 1.362 0 0 1 .712.232.956.956 0 0 1 .312.584 6.775 6.775 0 0 1 .08 1.216v3.968a8.435 8.435 0 0 1 -.152 1.864 2.094 2.094 0 0 1 -.536 1 1.92 1.92 0 0 1 -.776.456 3.008 3.008 0 0 1 -.92.152 2.418 2.418 0 0 1 -2.1-.856 3.975 3.975 0 0 1 -.616-2.36v-4.864a3.307 3.307 0 0 1 .08-.872.564.564 0 0 1 .3-.368 2.306 2.306 0 0 1 .728-.152 2.611 2.611 0 0 0 .08-.688q-.72.048-1.856.048-1.217 0-1.856-.048a2.57 2.57 0 0 0 .08.688 1.631 1.631 0 0 1 .608.16.591.591 0 0 1 .264.384 3.614 3.614 0 0 1 .072.848v5.088a4.1 4.1 0 0 0 .888 2.9 4.039 4.039 0 0 0 3.032.944 3.506 3.506 0 0 0 2.592-.912 2.735 2.735 0 0 0 .72-1.312 9.888 9.888 0 0 0 .192-2.224zm10.624-6.544-2.032.032q-1.344 0-2.176-.048a2.175 2.175 0 0 0 .08.688 1.174 1.174 0 0 1 .872.312 1.785 1.785 0 0 1 .232 1.08v6.753a1.789 1.789 0 0 1 -.232 1.08 1.182 1.182 0 0 1 -.872.312 2.167 2.167 0 0 0 -.08.688q.624-.048 2.176-.048 1.28 0 2.016.048a2.2 2.2 0 0 0 -.08-.688 2.442 2.442 0 0 1 -.84-.168.867.867 0 0 1 -.44-.5 2.952 2.952 0 0 1 -.144-1.048v-7.7a4.086 4.086 0 0 1 .816-.1 2.563 2.563 0 0 1 2.048.76 3.117 3.117 0 0 1 .656 2.1q0 2.5-2.256 2.5a3.618 3.618 0 0 1 -.848-.1 1.218 1.218 0 0 0 -.048.352 1.886 1.886 0 0 0 .032.3 3.089 3.089 0 0 0 1.12.176 3.586 3.586 0 0 0 1.976-.528 3.4 3.4 0 0 0 1.24-1.368 4.005 4.005 0 0 0 .416-1.8 3.009 3.009 0 0 0 -.88-2.232 3.776 3.776 0 0 0 -2.752-.872z" fill-rule="evenodd" transform="translate(-332.875 -544.156)"/></svg>