<svg height="11.126" viewBox="0 0 89.531 11.126" width="89.531" xmlns="http://www.w3.org/2000/svg"><path d="m332.36 552.791q-.752-1.281-1.136-1.848a9.171 9.171 0 0 0 -.944-1.16 3.937 3.937 0 0 0 1.976-1.088 2.591 2.591 0 0 0 .712-1.824 2.423 2.423 0 0 0 -.88-1.944 3.952 3.952 0 0 0 -2.608-.744l-1.344.016q-.449.015-1.328.016-1.279 0-1.92-.032a2.327 2.327 0 0 0 .08.672 1.057 1.057 0 0 1 .872.3 1.859 1.859 0 0 1 .232 1.1v6.745a1.838 1.838 0 0 1 -.224 1.08 1.173 1.173 0 0 1 -.88.312 2.391 2.391 0 0 0 -.08.688q.72-.048 1.92-.048 1.217 0 1.9.048a2.294 2.294 0 0 0 -.08-.688 1.1 1.1 0 0 1 -.84-.312 1.89 1.89 0 0 1 -.216-1.08v-2.9q.384.032.624.032l.5-.016a11.283 11.283 0 0 1 1.08 1.32q.408.6.9 1.5l.192.352q.463.912 1.072 1.888a16.6 16.6 0 0 1 2.512-.144 2.7 2.7 0 0 0 .064-.688 2.9 2.9 0 0 1 -.936-.176 1.584 1.584 0 0 1 -.6-.448 7.113 7.113 0 0 1 -.624-.928zm-4.784-3.424v-4.352a5.693 5.693 0 0 1 1.184-.128 2.949 2.949 0 0 1 2.008.568 2.277 2.277 0 0 1 -.232 3.36 3.876 3.876 0 0 1 -2.256.6 5.715 5.715 0 0 1 -.7-.048zm19.456 2.928a5.074 5.074 0 0 1 -.552 1.168 1.816 1.816 0 0 1 -.872.624 5.01 5.01 0 0 1 -1.7.224h-.1a2.545 2.545 0 0 1 -.92-.128.721.721 0 0 1 -.424-.44 2.867 2.867 0 0 1 -.112-.92v-2.9h1.008a2.3 2.3 0 0 1 1.368.3 1.538 1.538 0 0 1 .44 1.128 2.94 2.94 0 0 0 .736.08q-.033-.545-.032-1.856 0-1.2.032-1.744a2.719 2.719 0 0 0 -.768.112 1.224 1.224 0 0 1 -.392 1.032 2.572 2.572 0 0 1 -1.384.264h-1v-4.384h1.488a2.751 2.751 0 0 1 1.976.568 2.287 2.287 0 0 1 .648 1.464 1.137 1.137 0 0 0 .72-.192 21.112 21.112 0 0 1 -.336-2.528q-1.584.048-4.5.048-1.745 0-2.688-.048a2.175 2.175 0 0 0 .08.688 1.174 1.174 0 0 1 .872.312 1.785 1.785 0 0 1 .232 1.08v6.576a3.584 3.584 0 0 1 -.1.96.721.721 0 0 1 -.328.448 1.716 1.716 0 0 1 -.68.16 2.167 2.167 0 0 0 -.08.688q1.2-.048 4.144-.048 2.175 0 3.424.032a13.933 13.933 0 0 1 .5-2.384 1.69 1.69 0 0 0 -.7-.384zm10.848 2.88a6.115 6.115 0 0 0 2.1-.336 7.213 7.213 0 0 0 1.9-1.088.782.782 0 0 0 -.1-.264.85.85 0 0 0 -.184-.232 6.552 6.552 0 0 1 -1.488.688 5.106 5.106 0 0 1 -1.552.256 3.645 3.645 0 0 1 -2.176-.664 4.168 4.168 0 0 1 -1.416-1.824 6.635 6.635 0 0 1 -.488-2.6 5.756 5.756 0 0 1 .4-2.176 3.425 3.425 0 0 1 3.392-2.208 2.346 2.346 0 0 1 1.744.6 3.335 3.335 0 0 1 .656 2.2 2.242 2.242 0 0 0 .848-.144 12.871 12.871 0 0 1 .176-2.48 9.016 9.016 0 0 0 -1.744-.632 7.7 7.7 0 0 0 -1.808-.2 5.712 5.712 0 0 0 -2.632.624 4.833 4.833 0 0 0 -1.968 1.856 5.683 5.683 0 0 0 -.744 2.992 6.4 6.4 0 0 0 .648 2.928 4.85 4.85 0 0 0 1.808 1.992 4.933 4.933 0 0 0 2.632.712zm17.008-2.384q-.753-1.281-1.136-1.848a9.171 9.171 0 0 0 -.944-1.16 3.941 3.941 0 0 0 1.976-1.088 2.6 2.6 0 0 0 .712-1.824 2.426 2.426 0 0 0 -.88-1.944 3.952 3.952 0 0 0 -2.608-.744l-1.344.016q-.448.015-1.328.016-1.281 0-1.92-.032a2.293 2.293 0 0 0 .08.672 1.058 1.058 0 0 1 .872.3 1.867 1.867 0 0 1 .232 1.1v6.745a1.838 1.838 0 0 1 -.224 1.08 1.175 1.175 0 0 1 -.88.312 2.356 2.356 0 0 0 -.08.688q.72-.048 1.92-.048 1.215 0 1.9.048a2.294 2.294 0 0 0 -.08-.688 1.1 1.1 0 0 1 -.84-.312 1.89 1.89 0 0 1 -.216-1.08v-2.9q.384.032.624.032l.5-.016a11.283 11.283 0 0 1 1.08 1.32q.408.6.9 1.5l.192.352q.464.912 1.072 1.888a16.6 16.6 0 0 1 2.512-.144 2.747 2.747 0 0 0 .064-.688 2.9 2.9 0 0 1 -.936-.176 1.569 1.569 0 0 1 -.6-.448 7.113 7.113 0 0 1 -.624-.928zm-4.784-3.424v-4.352a5.693 5.693 0 0 1 1.184-.128 2.951 2.951 0 0 1 2.008.568 2.277 2.277 0 0 1 -.232 3.36 3.876 3.876 0 0 1 -2.256.6 5.7 5.7 0 0 1 -.7-.048zm20.32 1.36v-3.84a6.862 6.862 0 0 1 .08-1.208 1.028 1.028 0 0 1 .28-.6 1.062 1.062 0 0 1 .584-.224 4.271 4.271 0 0 0 .08-.688q-.624.048-1.52.048-.96 0-1.5-.048a3.537 3.537 0 0 0 .08.688 1.362 1.362 0 0 1 .712.232.956.956 0 0 1 .312.584 6.775 6.775 0 0 1 .08 1.216v3.968a8.435 8.435 0 0 1 -.152 1.864 2.094 2.094 0 0 1 -.536 1 1.92 1.92 0 0 1 -.776.456 3.008 3.008 0 0 1 -.92.152 2.418 2.418 0 0 1 -2.1-.856 3.975 3.975 0 0 1 -.616-2.36v-4.864a3.307 3.307 0 0 1 .08-.872.564.564 0 0 1 .3-.368 2.306 2.306 0 0 1 .728-.152 2.611 2.611 0 0 0 .08-.688q-.72.048-1.856.048-1.216 0-1.856-.048a2.57 2.57 0 0 0 .08.688 1.631 1.631 0 0 1 .608.16.591.591 0 0 1 .264.384 3.614 3.614 0 0 1 .072.848v5.088a4.1 4.1 0 0 0 .888 2.9 4.039 4.039 0 0 0 3.032.944 3.506 3.506 0 0 0 2.592-.912 2.735 2.735 0 0 0 .72-1.312 9.888 9.888 0 0 0 .192-2.224zm7.6-4.48v6.753a1.789 1.789 0 0 1 -.232 1.08 1.182 1.182 0 0 1 -.872.312 2.167 2.167 0 0 0 -.08.688q.816-.048 1.936-.048.975 0 1.936.048a2.2 2.2 0 0 0 -.08-.688 1.178 1.178 0 0 1 -.872-.312 1.782 1.782 0 0 1 -.232-1.08v-6.752a1.778 1.778 0 0 1 .232-1.08 1.17 1.17 0 0 1 .872-.312 2.205 2.205 0 0 0 .08-.688q-.96.048-1.936.048-1.056 0-1.936-.048a2.175 2.175 0 0 0 .08.688 1.174 1.174 0 0 1 .872.312 1.785 1.785 0 0 1 .232 1.08zm16.271-2.08q-.879.048-4.112.048-3.183 0-4.08-.048a14.784 14.784 0 0 1 -.256 2.56 1.552 1.552 0 0 0 .768.144 5.323 5.323 0 0 1 .3-1.1 1.306 1.306 0 0 1 .568-.624 2.285 2.285 0 0 1 1.136-.232h.816v8.085a2.553 2.553 0 0 1 -.1.832.675.675 0 0 1 -.376.408 2.452 2.452 0 0 1 -.8.152 2.2 2.2 0 0 0 -.08.688q.9-.048 2.1-.048 1.073 0 2.1.048a2.167 2.167 0 0 0 -.08-.688 2.368 2.368 0 0 1 -.792-.152.655.655 0 0 1 -.36-.4 2.76 2.76 0 0 1 -.1-.84v-8.08h.848a1.689 1.689 0 0 1 1.344.5 2.276 2.276 0 0 1 .464 1.456 1.721 1.721 0 0 0 .8-.144q-.111-1.344-.112-1.984z" fill-rule="evenodd" transform="translate(-324.875 -544.062)"/></svg>